<svg width="400" height="400" viewBox="0 0 400 400" fill="none" xmlns="http://www.w3.org/2000/svg">
<rect width="400" height="400" rx="200" fill="#5416A3"/>
<path d="M285.134 247.808L287.005 252.445C288.896 251.682 290.134 249.847 290.134 247.808H285.134ZM202.007 281.342L200.232 286.016C201.409 286.463 202.711 286.45 203.878 285.979L202.007 281.342ZM113.685 247.808H108.685C108.685 249.884 109.968 251.745 111.91 252.482L113.685 247.808ZM118.685 195.853C118.685 193.092 116.446 190.853 113.685 190.853C110.923 190.853 108.685 193.092 108.685 195.853H118.685ZM200.433 118.658L202.201 123.335C204.46 122.481 205.786 120.135 205.352 117.76C204.918 115.384 202.848 113.658 200.433 113.658V118.658ZM88.6523 160.902L86.8848 156.225C84.9851 156.943 83.7083 158.738 83.6541 160.768C83.5999 162.799 84.779 164.66 86.6376 165.478L88.6523 160.902ZM199.904 209.882L197.889 214.458C199.172 215.023 200.633 215.023 201.916 214.46L199.904 209.882ZM199.896 118.658V113.658C197.482 113.658 195.413 115.383 194.978 117.757C194.543 120.132 195.867 122.478 198.124 123.333L199.896 118.658ZM311.348 160.902L313.359 165.479C315.218 164.662 316.399 162.802 316.346 160.773C316.293 158.743 315.018 156.946 313.12 156.227L311.348 160.902ZM280.134 173.868V247.808H290.134V173.868H280.134ZM283.264 243.171L200.137 276.705L203.878 285.979L287.005 252.445L283.264 243.171ZM203.782 276.668L115.459 243.133L111.91 252.482L200.232 286.016L203.782 276.668ZM118.685 247.808V195.853H108.685V247.808H118.685ZM198.665 113.981L198.397 114.082L201.932 123.437L202.201 123.335L198.665 113.981ZM198.397 114.082L86.8848 156.225L90.4199 165.579L201.932 123.437L198.397 114.082ZM86.6376 165.478L197.889 214.458L201.919 205.306L90.6671 156.326L86.6376 165.478ZM198.124 123.333L198.392 123.435L201.936 114.084L201.668 113.983L198.124 123.333ZM198.392 123.435L309.576 165.577L313.12 156.227L201.936 114.084L198.392 123.435ZM309.336 156.325L197.892 205.305L201.916 214.46L313.359 165.479L309.336 156.325ZM201.916 214.46L204.415 213.361L200.391 204.206L197.892 205.305L201.916 214.46ZM200.433 113.658H199.896V123.658H200.433V113.658Z" fill="white"/>
</svg>
