<svg width="432" height="432" viewBox="0 0 432 432" fill="none" xmlns="http://www.w3.org/2000/svg">
<path d="M40.2801 119.613C38.5963 93.7238 36.4915 79.762 35.86 70.571C35.386 63.6706 36.1758 56.2058 45.4369 54.5219C53.4878 53.5221 57.3289 60.6083 57.6447 63.4147C57.6096 60.7135 57.6447 54.2609 57.6447 52.575C57.6447 49.7335 57.7499 39.4199 69.2211 39.4199C77.3216 39.4199 80.2187 47.3305 80.0082 51.049C80.1486 49.6809 80.3134 45.4818 80.4818 41.5247C80.7302 35.6878 83.8705 28.2013 93.2159 28.3697C101.267 28.8959 103.898 36.6311 103.529 41.5247L101.951 66.6771C102.266 64.1513 103.329 57.7211 105.687 48.6284C108.044 39.5357 115.138 38.9324 118.579 39.4199C122.97 40.042 130.429 44.282 127.314 56.574C123.609 72.1495 121.087 92.1978 120.21 100.827C124.577 99.0384 128.862 95.2696 133.703 90.218C138.544 85.1665 145.648 85.0613 149.647 88.0606C154.225 92.0071 156.676 101.091 151.256 106.51C145.025 112.235 122.578 138.907 111.422 152.237C108.335 156.166 97.9937 164.024 81.3236 164.024C51.646 162.761 41.7 141.445 40.2801 119.613Z" fill="url(#paint0_radial_1278_1772)"/>
<path d="M40.2801 119.613C38.5963 93.7238 36.4915 79.762 35.86 70.571C35.386 63.6706 36.1758 56.2058 45.4369 54.5219C53.4878 53.5221 57.3289 60.6083 57.6447 63.4147C57.6096 60.7135 57.6447 54.2609 57.6447 52.575C57.6447 49.7335 57.7499 39.4199 69.2211 39.4199C77.3216 39.4199 80.2187 47.3305 80.0082 51.049C80.1486 49.6809 80.3134 45.4818 80.4818 41.5247C80.7302 35.6878 83.8705 28.2013 93.2159 28.3697C101.267 28.8959 103.898 36.6311 103.529 41.5247L101.951 66.6771C102.266 64.1513 103.329 57.7211 105.687 48.6284C108.044 39.5357 115.138 38.9324 118.579 39.4199C122.97 40.042 130.429 44.282 127.314 56.574C123.609 72.1495 121.087 92.1978 120.21 100.827C124.577 99.0384 128.862 95.2696 133.703 90.218C138.544 85.1665 145.648 85.0613 149.647 88.0606C154.225 92.0071 156.676 101.091 151.256 106.51C145.025 112.235 122.578 138.907 111.422 152.237C108.335 156.166 97.9937 164.024 81.3236 164.024C51.646 162.761 41.7 141.445 40.2801 119.613Z" fill="url(#paint1_radial_1278_1772)"/>
<path d="M40.2801 119.613C38.5963 93.7238 36.4915 79.762 35.86 70.571C35.386 63.6706 36.1758 56.2058 45.4369 54.5219C53.4878 53.5221 57.3289 60.6083 57.6447 63.4147C57.6096 60.7135 57.6447 54.2609 57.6447 52.575C57.6447 49.7335 57.7499 39.4199 69.2211 39.4199C77.3216 39.4199 80.2187 47.3305 80.0082 51.049C80.1486 49.6809 80.3134 45.4818 80.4818 41.5247C80.7302 35.6878 83.8705 28.2013 93.2159 28.3697C101.267 28.8959 103.898 36.6311 103.529 41.5247L101.951 66.6771C102.266 64.1513 103.329 57.7211 105.687 48.6284C108.044 39.5357 115.138 38.9324 118.579 39.4199C122.97 40.042 130.429 44.282 127.314 56.574C123.609 72.1495 121.087 92.1978 120.21 100.827C124.577 99.0384 128.862 95.2696 133.703 90.218C138.544 85.1665 145.648 85.0613 149.647 88.0606C154.225 92.0071 156.676 101.091 151.256 106.51C145.025 112.235 122.578 138.907 111.422 152.237C108.335 156.166 97.9937 164.024 81.3236 164.024C51.646 162.761 41.7 141.445 40.2801 119.613Z" fill="url(#paint2_linear_1278_1772)"/>
<path d="M40.2801 119.613C38.5963 93.7238 36.4915 79.762 35.86 70.571C35.386 63.6706 36.1758 56.2058 45.4369 54.5219C53.4878 53.5221 57.3289 60.6083 57.6447 63.4147C57.6096 60.7135 57.6447 54.2609 57.6447 52.575C57.6447 49.7335 57.7499 39.4199 69.2211 39.4199C77.3216 39.4199 80.2187 47.3305 80.0082 51.049C80.1486 49.6809 80.3134 45.4818 80.4818 41.5247C80.7302 35.6878 83.8705 28.2013 93.2159 28.3697C101.267 28.8959 103.898 36.6311 103.529 41.5247L101.951 66.6771C102.266 64.1513 103.329 57.7211 105.687 48.6284C108.044 39.5357 115.138 38.9324 118.579 39.4199C122.97 40.042 130.429 44.282 127.314 56.574C123.609 72.1495 121.087 92.1978 120.21 100.827C124.577 99.0384 128.862 95.2696 133.703 90.218C138.544 85.1665 145.648 85.0613 149.647 88.0606C154.225 92.0071 156.676 101.091 151.256 106.51C145.025 112.235 122.578 138.907 111.422 152.237C108.335 156.166 97.9937 164.024 81.3236 164.024C51.646 162.761 41.7 141.445 40.2801 119.613Z" fill="url(#paint3_radial_1278_1772)"/>
<path d="M40.2801 119.613C38.5963 93.7238 36.4915 79.762 35.86 70.571C35.386 63.6706 36.1758 56.2058 45.4369 54.5219C53.4878 53.5221 57.3289 60.6083 57.6447 63.4147C57.6096 60.7135 57.6447 54.2609 57.6447 52.575C57.6447 49.7335 57.7499 39.4199 69.2211 39.4199C77.3216 39.4199 80.2187 47.3305 80.0082 51.049C80.1486 49.6809 80.3134 45.4818 80.4818 41.5247C80.7302 35.6878 83.8705 28.2013 93.2159 28.3697C101.267 28.8959 103.898 36.6311 103.529 41.5247L101.951 66.6771C102.266 64.1513 103.329 57.7211 105.687 48.6284C108.044 39.5357 115.138 38.9324 118.579 39.4199C122.97 40.042 130.429 44.282 127.314 56.574C123.609 72.1495 121.087 92.1978 120.21 100.827C124.577 99.0384 128.862 95.2696 133.703 90.218C138.544 85.1665 145.648 85.0613 149.647 88.0606C154.225 92.0071 156.676 101.091 151.256 106.51C145.025 112.235 122.578 138.907 111.422 152.237C108.335 156.166 97.9937 164.024 81.3236 164.024C51.646 162.761 41.7 141.445 40.2801 119.613Z" fill="url(#paint4_radial_1278_1772)"/>
<path d="M40.2801 119.613C38.5963 93.7238 36.4915 79.762 35.86 70.571C35.386 63.6706 36.1758 56.2058 45.4369 54.5219C53.4878 53.5221 57.3289 60.6083 57.6447 63.4147C57.6096 60.7135 57.6447 54.2609 57.6447 52.575C57.6447 49.7335 57.7499 39.4199 69.2211 39.4199C77.3216 39.4199 80.2187 47.3305 80.0082 51.049C80.1486 49.6809 80.3134 45.4818 80.4818 41.5247C80.7302 35.6878 83.8705 28.2013 93.2159 28.3697C101.267 28.8959 103.898 36.6311 103.529 41.5247L101.951 66.6771C102.266 64.1513 103.329 57.7211 105.687 48.6284C108.044 39.5357 115.138 38.9324 118.579 39.4199C122.97 40.042 130.429 44.282 127.314 56.574C123.609 72.1495 121.087 92.1978 120.21 100.827C124.577 99.0384 128.862 95.2696 133.703 90.218C138.544 85.1665 145.648 85.0613 149.647 88.0606C154.225 92.0071 156.676 101.091 151.256 106.51C145.025 112.235 122.578 138.907 111.422 152.237C108.335 156.166 97.9937 164.024 81.3236 164.024C51.646 162.761 41.7 141.445 40.2801 119.613Z" fill="url(#paint5_radial_1278_1772)"/>
<path d="M40.2801 119.613C38.5963 93.7238 36.4915 79.762 35.86 70.571C35.386 63.6706 36.1758 56.2058 45.4369 54.5219C53.4878 53.5221 57.3289 60.6083 57.6447 63.4147C57.6096 60.7135 57.6447 54.2609 57.6447 52.575C57.6447 49.7335 57.7499 39.4199 69.2211 39.4199C77.3216 39.4199 80.2187 47.3305 80.0082 51.049C80.1486 49.6809 80.3134 45.4818 80.4818 41.5247C80.7302 35.6878 83.8705 28.2013 93.2159 28.3697C101.267 28.8959 103.898 36.6311 103.529 41.5247L101.951 66.6771C102.266 64.1513 103.329 57.7211 105.687 48.6284C108.044 39.5357 115.138 38.9324 118.579 39.4199C122.97 40.042 130.429 44.282 127.314 56.574C123.609 72.1495 121.087 92.1978 120.21 100.827C124.577 99.0384 128.862 95.2696 133.703 90.218C138.544 85.1665 145.648 85.0613 149.647 88.0606C154.225 92.0071 156.676 101.091 151.256 106.51C145.025 112.235 122.578 138.907 111.422 152.237C108.335 156.166 97.9937 164.024 81.3236 164.024C51.646 162.761 41.7 141.445 40.2801 119.613Z" fill="url(#paint6_radial_1278_1772)"/>
<path d="M40.2801 119.613C38.5963 93.7238 36.4915 79.762 35.86 70.571C35.386 63.6706 36.1758 56.2058 45.4369 54.5219C53.4878 53.5221 57.3289 60.6083 57.6447 63.4147C57.6096 60.7135 57.6447 54.2609 57.6447 52.575C57.6447 49.7335 57.7499 39.4199 69.2211 39.4199C77.3216 39.4199 80.2187 47.3305 80.0082 51.049C80.1486 49.6809 80.3134 45.4818 80.4818 41.5247C80.7302 35.6878 83.8705 28.2013 93.2159 28.3697C101.267 28.8959 103.898 36.6311 103.529 41.5247L101.951 66.6771C102.266 64.1513 103.329 57.7211 105.687 48.6284C108.044 39.5357 115.138 38.9324 118.579 39.4199C122.97 40.042 130.429 44.282 127.314 56.574C123.609 72.1495 121.087 92.1978 120.21 100.827C124.577 99.0384 128.862 95.2696 133.703 90.218C138.544 85.1665 145.648 85.0613 149.647 88.0606C154.225 92.0071 156.676 101.091 151.256 106.51C145.025 112.235 122.578 138.907 111.422 152.237C108.335 156.166 97.9937 164.024 81.3236 164.024C51.646 162.761 41.7 141.445 40.2801 119.613Z" fill="url(#paint7_radial_1278_1772)"/>
<path d="M40.2801 119.613C38.5963 93.7238 36.4915 79.762 35.86 70.571C35.386 63.6706 36.1758 56.2058 45.4369 54.5219C53.4878 53.5221 57.3289 60.6083 57.6447 63.4147C57.6096 60.7135 57.6447 54.2609 57.6447 52.575C57.6447 49.7335 57.7499 39.4199 69.2211 39.4199C77.3216 39.4199 80.2187 47.3305 80.0082 51.049C80.1486 49.6809 80.3134 45.4818 80.4818 41.5247C80.7302 35.6878 83.8705 28.2013 93.2159 28.3697C101.267 28.8959 103.898 36.6311 103.529 41.5247L101.951 66.6771C102.266 64.1513 103.329 57.7211 105.687 48.6284C108.044 39.5357 115.138 38.9324 118.579 39.4199C122.97 40.042 130.429 44.282 127.314 56.574C123.609 72.1495 121.087 92.1978 120.21 100.827C124.577 99.0384 128.862 95.2696 133.703 90.218C138.544 85.1665 145.648 85.0613 149.647 88.0606C154.225 92.0071 156.676 101.091 151.256 106.51C145.025 112.235 122.578 138.907 111.422 152.237C108.335 156.166 97.9937 164.024 81.3236 164.024C51.646 162.761 41.7 141.445 40.2801 119.613Z" fill="url(#paint8_radial_1278_1772)"/>
<path d="M40.2801 119.613C38.5963 93.7238 36.4915 79.762 35.86 70.571C35.386 63.6706 36.1758 56.2058 45.4369 54.5219C53.4878 53.5221 57.3289 60.6083 57.6447 63.4147C57.6096 60.7135 57.6447 54.2609 57.6447 52.575C57.6447 49.7335 57.7499 39.4199 69.2211 39.4199C77.3216 39.4199 80.2187 47.3305 80.0082 51.049C80.1486 49.6809 80.3134 45.4818 80.4818 41.5247C80.7302 35.6878 83.8705 28.2013 93.2159 28.3697C101.267 28.8959 103.898 36.6311 103.529 41.5247L101.951 66.6771C102.266 64.1513 103.329 57.7211 105.687 48.6284C108.044 39.5357 115.138 38.9324 118.579 39.4199C122.97 40.042 130.429 44.282 127.314 56.574C123.609 72.1495 121.087 92.1978 120.21 100.827C124.577 99.0384 128.862 95.2696 133.703 90.218C138.544 85.1665 145.648 85.0613 149.647 88.0606C154.225 92.0071 156.676 101.091 151.256 106.51C145.025 112.235 122.578 138.907 111.422 152.237C108.335 156.166 97.9937 164.024 81.3236 164.024C51.646 162.761 41.7 141.445 40.2801 119.613Z" fill="url(#paint9_radial_1278_1772)"/>
<path d="M40.2801 119.613C38.5963 93.7238 36.4915 79.762 35.86 70.571C35.386 63.6706 36.1758 56.2058 45.4369 54.5219C53.4878 53.5221 57.3289 60.6083 57.6447 63.4147C57.6096 60.7135 57.6447 54.2609 57.6447 52.575C57.6447 49.7335 57.7499 39.4199 69.2211 39.4199C77.3216 39.4199 80.2187 47.3305 80.0082 51.049C80.1486 49.6809 80.3134 45.4818 80.4818 41.5247C80.7302 35.6878 83.8705 28.2013 93.2159 28.3697C101.267 28.8959 103.898 36.6311 103.529 41.5247L101.951 66.6771C102.266 64.1513 103.329 57.7211 105.687 48.6284C108.044 39.5357 115.138 38.9324 118.579 39.4199C122.97 40.042 130.429 44.282 127.314 56.574C123.609 72.1495 121.087 92.1978 120.21 100.827C124.577 99.0384 128.862 95.2696 133.703 90.218C138.544 85.1665 145.648 85.0613 149.647 88.0606C154.225 92.0071 156.676 101.091 151.256 106.51C145.025 112.235 122.578 138.907 111.422 152.237C108.335 156.166 97.9937 164.024 81.3236 164.024C51.646 162.761 41.7 141.445 40.2801 119.613Z" fill="url(#paint10_radial_1278_1772)"/>
<g filter="url(#filter0_f_1278_1772)">
<path d="M57.75 65.5562L59.7496 91.7609" stroke="url(#paint11_linear_1278_1772)" stroke-width="1.0103" stroke-linecap="round"/>
</g>
<g filter="url(#filter1_f_1278_1772)">
<path d="M79.6405 59.7678L78.6934 90.7084" stroke="url(#paint12_linear_1278_1772)" stroke-width="1.0103" stroke-linecap="round"/>
</g>
<g filter="url(#filter2_f_1278_1772)">
<path d="M101.741 67.8713L98.584 86.8145" stroke="url(#paint13_linear_1278_1772)" stroke-width="1.0103" stroke-linecap="round"/>
</g>
<g filter="url(#filter3_f_1278_1772)">
<path d="M48.6738 60.6987L53.5149 96.1646" stroke="url(#paint14_linear_1278_1772)" stroke-width="5.38829"/>
</g>
<g filter="url(#filter4_f_1278_1772)">
<path d="M71.4053 47.8232V89.4289" stroke="url(#paint15_linear_1278_1772)" stroke-width="5.38829"/>
</g>
<g filter="url(#filter5_f_1278_1772)">
<path d="M96.137 35.5464L92.2432 88.6746" stroke="url(#paint16_linear_1278_1772)" stroke-width="5.38829"/>
</g>
<g filter="url(#filter6_f_1278_1772)">
<path d="M122.026 49.6484L111.081 95.5331" stroke="url(#paint17_linear_1278_1772)" stroke-width="5.38829"/>
</g>
<g filter="url(#filter7_f_1278_1772)">
<path d="M48.5684 103.11C50.0417 102.268 56.8823 98.0062 59.5133 92.9021" stroke="url(#paint18_linear_1278_1772)" stroke-width="2.69414" stroke-linecap="round"/>
</g>
<g filter="url(#filter8_f_1278_1772)">
<path d="M77.7665 90.1004C76.0083 92.3188 73.286 94.139 70.7846 95.4794" stroke="url(#paint19_linear_1278_1772)" stroke-width="2.69414" stroke-linecap="round"/>
</g>
<g filter="url(#filter9_f_1278_1772)">
<path d="M97.4263 87.5214C95.6681 89.7397 90.6751 92.3742 87.8336 93.2161" stroke="url(#paint20_linear_1278_1772)" stroke-width="2.69414" stroke-linecap="round"/>
</g>
<g filter="url(#filter10_i_1278_1772)">
<path fill-rule="evenodd" clip-rule="evenodd" d="M370.947 212.149C374.461 204.954 376.302 196.922 376.302 188.555C376.302 180.827 374.712 173.577 371.861 166.968H371.949C370.619 163.975 369.124 161.148 367.299 158.486L367.265 158.434C361.576 149.732 358.564 139.525 358.564 129.15V128.982C358.564 98.8614 334.132 74.43 304.012 74.43C300.999 74.43 298.155 73.0913 296.481 70.5812C286.608 56.8595 270.375 47.8232 252.135 47.8232C233.895 47.8232 217.663 56.8595 207.79 70.5812C206.117 72.924 203.272 74.43 200.26 74.43C199.79 74.43 199.321 74.436 198.854 74.4478C169.383 75.194 145.708 99.3315 145.708 128.982V129.15C145.708 139.525 142.696 149.732 137.006 158.434L136.968 158.495C131.303 167.183 127.972 177.369 127.972 188.555C127.972 197.089 129.98 204.954 133.327 212.149C134.498 214.492 134.498 217.337 133.327 219.68C129.98 226.708 127.972 234.573 127.972 242.94C127.972 272.391 151.734 296.153 181.185 296.153H323.088C352.54 296.153 376.302 272.391 376.302 242.94C376.302 234.573 374.294 226.708 370.947 219.68C369.775 217.337 369.775 214.492 370.947 212.149ZM168.221 167.96H168.017L187.838 206.91C189.877 253.25 207.962 206.91 252.135 206.91C296.308 206.91 315.571 258.49 317.609 212.149L336.391 159.284C335.503 138.7 320.587 137.255 317.609 137.255H264.365C243.339 137.255 223.5 126.964 211.63 109.587C209.595 106.719 205.356 107.225 204 110.43L202.643 113.636C198.913 122.915 191.791 130.001 182.973 134.05C182.719 134.134 182.422 134.261 182.125 134.387C181.829 134.514 181.532 134.64 181.278 134.725C177.378 136.749 168.221 142.823 167.882 158.513L168.051 163.574L168.221 167.96Z" fill="url(#paint21_linear_1278_1772)"/>
<path fill-rule="evenodd" clip-rule="evenodd" d="M370.947 212.149C374.461 204.954 376.302 196.922 376.302 188.555C376.302 180.827 374.712 173.577 371.861 166.968H371.949C370.619 163.975 369.124 161.148 367.299 158.486L367.265 158.434C361.576 149.732 358.564 139.525 358.564 129.15V128.982C358.564 98.8614 334.132 74.43 304.012 74.43C300.999 74.43 298.155 73.0913 296.481 70.5812C286.608 56.8595 270.375 47.8232 252.135 47.8232C233.895 47.8232 217.663 56.8595 207.79 70.5812C206.117 72.924 203.272 74.43 200.26 74.43C199.79 74.43 199.321 74.436 198.854 74.4478C169.383 75.194 145.708 99.3315 145.708 128.982V129.15C145.708 139.525 142.696 149.732 137.006 158.434L136.968 158.495C131.303 167.183 127.972 177.369 127.972 188.555C127.972 197.089 129.98 204.954 133.327 212.149C134.498 214.492 134.498 217.337 133.327 219.68C129.98 226.708 127.972 234.573 127.972 242.94C127.972 272.391 151.734 296.153 181.185 296.153H323.088C352.54 296.153 376.302 272.391 376.302 242.94C376.302 234.573 374.294 226.708 370.947 219.68C369.775 217.337 369.775 214.492 370.947 212.149ZM168.221 167.96H168.017L187.838 206.91C189.877 253.25 207.962 206.91 252.135 206.91C296.308 206.91 315.571 258.49 317.609 212.149L336.391 159.284C335.503 138.7 320.587 137.255 317.609 137.255H264.365C243.339 137.255 223.5 126.964 211.63 109.587C209.595 106.719 205.356 107.225 204 110.43L202.643 113.636C198.913 122.915 191.791 130.001 182.973 134.05C182.719 134.134 182.422 134.261 182.125 134.387C181.829 134.514 181.532 134.64 181.278 134.725C177.378 136.749 168.221 142.823 167.882 158.513L168.051 163.574L168.221 167.96Z" fill="url(#paint22_radial_1278_1772)"/>
<path fill-rule="evenodd" clip-rule="evenodd" d="M370.947 212.149C374.461 204.954 376.302 196.922 376.302 188.555C376.302 180.827 374.712 173.577 371.861 166.968H371.949C370.619 163.975 369.124 161.148 367.299 158.486L367.265 158.434C361.576 149.732 358.564 139.525 358.564 129.15V128.982C358.564 98.8614 334.132 74.43 304.012 74.43C300.999 74.43 298.155 73.0913 296.481 70.5812C286.608 56.8595 270.375 47.8232 252.135 47.8232C233.895 47.8232 217.663 56.8595 207.79 70.5812C206.117 72.924 203.272 74.43 200.26 74.43C199.79 74.43 199.321 74.436 198.854 74.4478C169.383 75.194 145.708 99.3315 145.708 128.982V129.15C145.708 139.525 142.696 149.732 137.006 158.434L136.968 158.495C131.303 167.183 127.972 177.369 127.972 188.555C127.972 197.089 129.98 204.954 133.327 212.149C134.498 214.492 134.498 217.337 133.327 219.68C129.98 226.708 127.972 234.573 127.972 242.94C127.972 272.391 151.734 296.153 181.185 296.153H323.088C352.54 296.153 376.302 272.391 376.302 242.94C376.302 234.573 374.294 226.708 370.947 219.68C369.775 217.337 369.775 214.492 370.947 212.149ZM168.221 167.96H168.017L187.838 206.91C189.877 253.25 207.962 206.91 252.135 206.91C296.308 206.91 315.571 258.49 317.609 212.149L336.391 159.284C335.503 138.7 320.587 137.255 317.609 137.255H264.365C243.339 137.255 223.5 126.964 211.63 109.587C209.595 106.719 205.356 107.225 204 110.43L202.643 113.636C198.913 122.915 191.791 130.001 182.973 134.05C182.719 134.134 182.422 134.261 182.125 134.387C181.829 134.514 181.532 134.64 181.278 134.725C177.378 136.749 168.221 142.823 167.882 158.513L168.051 163.574L168.221 167.96Z" fill="url(#paint23_radial_1278_1772)"/>
<path fill-rule="evenodd" clip-rule="evenodd" d="M370.947 212.149C374.461 204.954 376.302 196.922 376.302 188.555C376.302 180.827 374.712 173.577 371.861 166.968H371.949C370.619 163.975 369.124 161.148 367.299 158.486L367.265 158.434C361.576 149.732 358.564 139.525 358.564 129.15V128.982C358.564 98.8614 334.132 74.43 304.012 74.43C300.999 74.43 298.155 73.0913 296.481 70.5812C286.608 56.8595 270.375 47.8232 252.135 47.8232C233.895 47.8232 217.663 56.8595 207.79 70.5812C206.117 72.924 203.272 74.43 200.26 74.43C199.79 74.43 199.321 74.436 198.854 74.4478C169.383 75.194 145.708 99.3315 145.708 128.982V129.15C145.708 139.525 142.696 149.732 137.006 158.434L136.968 158.495C131.303 167.183 127.972 177.369 127.972 188.555C127.972 197.089 129.98 204.954 133.327 212.149C134.498 214.492 134.498 217.337 133.327 219.68C129.98 226.708 127.972 234.573 127.972 242.94C127.972 272.391 151.734 296.153 181.185 296.153H323.088C352.54 296.153 376.302 272.391 376.302 242.94C376.302 234.573 374.294 226.708 370.947 219.68C369.775 217.337 369.775 214.492 370.947 212.149ZM168.221 167.96H168.017L187.838 206.91C189.877 253.25 207.962 206.91 252.135 206.91C296.308 206.91 315.571 258.49 317.609 212.149L336.391 159.284C335.503 138.7 320.587 137.255 317.609 137.255H264.365C243.339 137.255 223.5 126.964 211.63 109.587C209.595 106.719 205.356 107.225 204 110.43L202.643 113.636C198.913 122.915 191.791 130.001 182.973 134.05C182.719 134.134 182.422 134.261 182.125 134.387C181.829 134.514 181.532 134.64 181.278 134.725C177.378 136.749 168.221 142.823 167.882 158.513L168.051 163.574L168.221 167.96Z" fill="url(#paint24_radial_1278_1772)"/>
<path fill-rule="evenodd" clip-rule="evenodd" d="M370.947 212.149C374.461 204.954 376.302 196.922 376.302 188.555C376.302 180.827 374.712 173.577 371.861 166.968H371.949C370.619 163.975 369.124 161.148 367.299 158.486L367.265 158.434C361.576 149.732 358.564 139.525 358.564 129.15V128.982C358.564 98.8614 334.132 74.43 304.012 74.43C300.999 74.43 298.155 73.0913 296.481 70.5812C286.608 56.8595 270.375 47.8232 252.135 47.8232C233.895 47.8232 217.663 56.8595 207.79 70.5812C206.117 72.924 203.272 74.43 200.26 74.43C199.79 74.43 199.321 74.436 198.854 74.4478C169.383 75.194 145.708 99.3315 145.708 128.982V129.15C145.708 139.525 142.696 149.732 137.006 158.434L136.968 158.495C131.303 167.183 127.972 177.369 127.972 188.555C127.972 197.089 129.98 204.954 133.327 212.149C134.498 214.492 134.498 217.337 133.327 219.68C129.98 226.708 127.972 234.573 127.972 242.94C127.972 272.391 151.734 296.153 181.185 296.153H323.088C352.54 296.153 376.302 272.391 376.302 242.94C376.302 234.573 374.294 226.708 370.947 219.68C369.775 217.337 369.775 214.492 370.947 212.149ZM168.221 167.96H168.017L187.838 206.91C189.877 253.25 207.962 206.91 252.135 206.91C296.308 206.91 315.571 258.49 317.609 212.149L336.391 159.284C335.503 138.7 320.587 137.255 317.609 137.255H264.365C243.339 137.255 223.5 126.964 211.63 109.587C209.595 106.719 205.356 107.225 204 110.43L202.643 113.636C198.913 122.915 191.791 130.001 182.973 134.05C182.719 134.134 182.422 134.261 182.125 134.387C181.829 134.514 181.532 134.64 181.278 134.725C177.378 136.749 168.221 142.823 167.882 158.513L168.051 163.574L168.221 167.96Z" fill="url(#paint25_radial_1278_1772)"/>
<path fill-rule="evenodd" clip-rule="evenodd" d="M370.947 212.149C374.461 204.954 376.302 196.922 376.302 188.555C376.302 180.827 374.712 173.577 371.861 166.968H371.949C370.619 163.975 369.124 161.148 367.299 158.486L367.265 158.434C361.576 149.732 358.564 139.525 358.564 129.15V128.982C358.564 98.8614 334.132 74.43 304.012 74.43C300.999 74.43 298.155 73.0913 296.481 70.5812C286.608 56.8595 270.375 47.8232 252.135 47.8232C233.895 47.8232 217.663 56.8595 207.79 70.5812C206.117 72.924 203.272 74.43 200.26 74.43C199.79 74.43 199.321 74.436 198.854 74.4478C169.383 75.194 145.708 99.3315 145.708 128.982V129.15C145.708 139.525 142.696 149.732 137.006 158.434L136.968 158.495C131.303 167.183 127.972 177.369 127.972 188.555C127.972 197.089 129.98 204.954 133.327 212.149C134.498 214.492 134.498 217.337 133.327 219.68C129.98 226.708 127.972 234.573 127.972 242.94C127.972 272.391 151.734 296.153 181.185 296.153H323.088C352.54 296.153 376.302 272.391 376.302 242.94C376.302 234.573 374.294 226.708 370.947 219.68C369.775 217.337 369.775 214.492 370.947 212.149ZM168.221 167.96H168.017L187.838 206.91C189.877 253.25 207.962 206.91 252.135 206.91C296.308 206.91 315.571 258.49 317.609 212.149L336.391 159.284C335.503 138.7 320.587 137.255 317.609 137.255H264.365C243.339 137.255 223.5 126.964 211.63 109.587C209.595 106.719 205.356 107.225 204 110.43L202.643 113.636C198.913 122.915 191.791 130.001 182.973 134.05C182.719 134.134 182.422 134.261 182.125 134.387C181.829 134.514 181.532 134.64 181.278 134.725C177.378 136.749 168.221 142.823 167.882 158.513L168.051 163.574L168.221 167.96Z" fill="url(#paint26_radial_1278_1772)"/>
<path fill-rule="evenodd" clip-rule="evenodd" d="M370.947 212.149C374.461 204.954 376.302 196.922 376.302 188.555C376.302 180.827 374.712 173.577 371.861 166.968H371.949C370.619 163.975 369.124 161.148 367.299 158.486L367.265 158.434C361.576 149.732 358.564 139.525 358.564 129.15V128.982C358.564 98.8614 334.132 74.43 304.012 74.43C300.999 74.43 298.155 73.0913 296.481 70.5812C286.608 56.8595 270.375 47.8232 252.135 47.8232C233.895 47.8232 217.663 56.8595 207.79 70.5812C206.117 72.924 203.272 74.43 200.26 74.43C199.79 74.43 199.321 74.436 198.854 74.4478C169.383 75.194 145.708 99.3315 145.708 128.982V129.15C145.708 139.525 142.696 149.732 137.006 158.434L136.968 158.495C131.303 167.183 127.972 177.369 127.972 188.555C127.972 197.089 129.98 204.954 133.327 212.149C134.498 214.492 134.498 217.337 133.327 219.68C129.98 226.708 127.972 234.573 127.972 242.94C127.972 272.391 151.734 296.153 181.185 296.153H323.088C352.54 296.153 376.302 272.391 376.302 242.94C376.302 234.573 374.294 226.708 370.947 219.68C369.775 217.337 369.775 214.492 370.947 212.149ZM168.221 167.96H168.017L187.838 206.91C189.877 253.25 207.962 206.91 252.135 206.91C296.308 206.91 315.571 258.49 317.609 212.149L336.391 159.284C335.503 138.7 320.587 137.255 317.609 137.255H264.365C243.339 137.255 223.5 126.964 211.63 109.587C209.595 106.719 205.356 107.225 204 110.43L202.643 113.636C198.913 122.915 191.791 130.001 182.973 134.05C182.719 134.134 182.422 134.261 182.125 134.387C181.829 134.514 181.532 134.64 181.278 134.725C177.378 136.749 168.221 142.823 167.882 158.513L168.051 163.574L168.221 167.96Z" fill="url(#paint27_radial_1278_1772)"/>
<path fill-rule="evenodd" clip-rule="evenodd" d="M370.947 212.149C374.461 204.954 376.302 196.922 376.302 188.555C376.302 180.827 374.712 173.577 371.861 166.968H371.949C370.619 163.975 369.124 161.148 367.299 158.486L367.265 158.434C361.576 149.732 358.564 139.525 358.564 129.15V128.982C358.564 98.8614 334.132 74.43 304.012 74.43C300.999 74.43 298.155 73.0913 296.481 70.5812C286.608 56.8595 270.375 47.8232 252.135 47.8232C233.895 47.8232 217.663 56.8595 207.79 70.5812C206.117 72.924 203.272 74.43 200.26 74.43C199.79 74.43 199.321 74.436 198.854 74.4478C169.383 75.194 145.708 99.3315 145.708 128.982V129.15C145.708 139.525 142.696 149.732 137.006 158.434L136.968 158.495C131.303 167.183 127.972 177.369 127.972 188.555C127.972 197.089 129.98 204.954 133.327 212.149C134.498 214.492 134.498 217.337 133.327 219.68C129.98 226.708 127.972 234.573 127.972 242.94C127.972 272.391 151.734 296.153 181.185 296.153H323.088C352.54 296.153 376.302 272.391 376.302 242.94C376.302 234.573 374.294 226.708 370.947 219.68C369.775 217.337 369.775 214.492 370.947 212.149ZM168.221 167.96H168.017L187.838 206.91C189.877 253.25 207.962 206.91 252.135 206.91C296.308 206.91 315.571 258.49 317.609 212.149L336.391 159.284C335.503 138.7 320.587 137.255 317.609 137.255H264.365C243.339 137.255 223.5 126.964 211.63 109.587C209.595 106.719 205.356 107.225 204 110.43L202.643 113.636C198.913 122.915 191.791 130.001 182.973 134.05C182.719 134.134 182.422 134.261 182.125 134.387C181.829 134.514 181.532 134.64 181.278 134.725C177.378 136.749 168.221 142.823 167.882 158.513L168.051 163.574L168.221 167.96Z" fill="url(#paint28_radial_1278_1772)"/>
<path fill-rule="evenodd" clip-rule="evenodd" d="M370.947 212.149C374.461 204.954 376.302 196.922 376.302 188.555C376.302 180.827 374.712 173.577 371.861 166.968H371.949C370.619 163.975 369.124 161.148 367.299 158.486L367.265 158.434C361.576 149.732 358.564 139.525 358.564 129.15V128.982C358.564 98.8614 334.132 74.43 304.012 74.43C300.999 74.43 298.155 73.0913 296.481 70.5812C286.608 56.8595 270.375 47.8232 252.135 47.8232C233.895 47.8232 217.663 56.8595 207.79 70.5812C206.117 72.924 203.272 74.43 200.26 74.43C199.79 74.43 199.321 74.436 198.854 74.4478C169.383 75.194 145.708 99.3315 145.708 128.982V129.15C145.708 139.525 142.696 149.732 137.006 158.434L136.968 158.495C131.303 167.183 127.972 177.369 127.972 188.555C127.972 197.089 129.98 204.954 133.327 212.149C134.498 214.492 134.498 217.337 133.327 219.68C129.98 226.708 127.972 234.573 127.972 242.94C127.972 272.391 151.734 296.153 181.185 296.153H323.088C352.54 296.153 376.302 272.391 376.302 242.94C376.302 234.573 374.294 226.708 370.947 219.68C369.775 217.337 369.775 214.492 370.947 212.149ZM168.221 167.96H168.017L187.838 206.91C189.877 253.25 207.962 206.91 252.135 206.91C296.308 206.91 315.571 258.49 317.609 212.149L336.391 159.284C335.503 138.7 320.587 137.255 317.609 137.255H264.365C243.339 137.255 223.5 126.964 211.63 109.587C209.595 106.719 205.356 107.225 204 110.43L202.643 113.636C198.913 122.915 191.791 130.001 182.973 134.05C182.719 134.134 182.422 134.261 182.125 134.387C181.829 134.514 181.532 134.64 181.278 134.725C177.378 136.749 168.221 142.823 167.882 158.513L168.051 163.574L168.221 167.96Z" fill="url(#paint29_radial_1278_1772)"/>
<path fill-rule="evenodd" clip-rule="evenodd" d="M370.947 212.149C374.461 204.954 376.302 196.922 376.302 188.555C376.302 180.827 374.712 173.577 371.861 166.968H371.949C370.619 163.975 369.124 161.148 367.299 158.486L367.265 158.434C361.576 149.732 358.564 139.525 358.564 129.15V128.982C358.564 98.8614 334.132 74.43 304.012 74.43C300.999 74.43 298.155 73.0913 296.481 70.5812C286.608 56.8595 270.375 47.8232 252.135 47.8232C233.895 47.8232 217.663 56.8595 207.79 70.5812C206.117 72.924 203.272 74.43 200.26 74.43C199.79 74.43 199.321 74.436 198.854 74.4478C169.383 75.194 145.708 99.3315 145.708 128.982V129.15C145.708 139.525 142.696 149.732 137.006 158.434L136.968 158.495C131.303 167.183 127.972 177.369 127.972 188.555C127.972 197.089 129.98 204.954 133.327 212.149C134.498 214.492 134.498 217.337 133.327 219.68C129.98 226.708 127.972 234.573 127.972 242.94C127.972 272.391 151.734 296.153 181.185 296.153H323.088C352.54 296.153 376.302 272.391 376.302 242.94C376.302 234.573 374.294 226.708 370.947 219.68C369.775 217.337 369.775 214.492 370.947 212.149ZM168.221 167.96H168.017L187.838 206.91C189.877 253.25 207.962 206.91 252.135 206.91C296.308 206.91 315.571 258.49 317.609 212.149L336.391 159.284C335.503 138.7 320.587 137.255 317.609 137.255H264.365C243.339 137.255 223.5 126.964 211.63 109.587C209.595 106.719 205.356 107.225 204 110.43L202.643 113.636C198.913 122.915 191.791 130.001 182.973 134.05C182.719 134.134 182.422 134.261 182.125 134.387C181.829 134.514 181.532 134.64 181.278 134.725C177.378 136.749 168.221 142.823 167.882 158.513L168.051 163.574L168.221 167.96Z" fill="url(#paint30_radial_1278_1772)"/>
<path fill-rule="evenodd" clip-rule="evenodd" d="M370.947 212.149C374.461 204.954 376.302 196.922 376.302 188.555C376.302 180.827 374.712 173.577 371.861 166.968H371.949C370.619 163.975 369.124 161.148 367.299 158.486L367.265 158.434C361.576 149.732 358.564 139.525 358.564 129.15V128.982C358.564 98.8614 334.132 74.43 304.012 74.43C300.999 74.43 298.155 73.0913 296.481 70.5812C286.608 56.8595 270.375 47.8232 252.135 47.8232C233.895 47.8232 217.663 56.8595 207.79 70.5812C206.117 72.924 203.272 74.43 200.26 74.43C199.79 74.43 199.321 74.436 198.854 74.4478C169.383 75.194 145.708 99.3315 145.708 128.982V129.15C145.708 139.525 142.696 149.732 137.006 158.434L136.968 158.495C131.303 167.183 127.972 177.369 127.972 188.555C127.972 197.089 129.98 204.954 133.327 212.149C134.498 214.492 134.498 217.337 133.327 219.68C129.98 226.708 127.972 234.573 127.972 242.94C127.972 272.391 151.734 296.153 181.185 296.153H323.088C352.54 296.153 376.302 272.391 376.302 242.94C376.302 234.573 374.294 226.708 370.947 219.68C369.775 217.337 369.775 214.492 370.947 212.149ZM168.221 167.96H168.017L187.838 206.91C189.877 253.25 207.962 206.91 252.135 206.91C296.308 206.91 315.571 258.49 317.609 212.149L336.391 159.284C335.503 138.7 320.587 137.255 317.609 137.255H264.365C243.339 137.255 223.5 126.964 211.63 109.587C209.595 106.719 205.356 107.225 204 110.43L202.643 113.636C198.913 122.915 191.791 130.001 182.973 134.05C182.719 134.134 182.422 134.261 182.125 134.387C181.829 134.514 181.532 134.64 181.278 134.725C177.378 136.749 168.221 142.823 167.882 158.513L168.051 163.574L168.221 167.96Z" fill="url(#paint31_radial_1278_1772)"/>
</g>
<path d="M54.8037 158.924C54.8037 157.436 56.0099 156.23 57.4979 156.23H108.834C110.322 156.23 111.528 157.436 111.528 158.924V182.014H54.8037V158.924Z" fill="url(#paint32_linear_1278_1772)"/>
<path d="M54.8037 158.924C54.8037 157.436 56.0099 156.23 57.4979 156.23H108.834C110.322 156.23 111.528 157.436 111.528 158.924V182.014H54.8037V158.924Z" fill="url(#paint33_radial_1278_1772)"/>
<path d="M54.8037 158.924C54.8037 157.436 56.0099 156.23 57.4979 156.23H108.834C110.322 156.23 111.528 157.436 111.528 158.924V182.014H54.8037V158.924Z" fill="url(#paint34_linear_1278_1772)"/>
<path d="M265.156 277.782H278.216C311.767 277.782 378.869 324.93 378.869 399.019H137.302V351.871C137.302 348.144 135.019 344.693 131.722 343.451L90.33 324.93C56.7789 311.459 43.3584 277.782 43.3584 254.909V183.682C43.3584 176.09 49.0644 170.017 55.9115 170.017L111.328 170.017C118.302 170.017 123.881 176.228 123.881 183.682V237.37C123.881 254.909 137.302 257.576 137.302 257.576L217.824 277.782H265.156Z" fill="url(#paint35_linear_1278_1772)"/>
<path d="M265.156 277.782H278.216C311.767 277.782 378.869 324.93 378.869 399.019H137.302V351.871C137.302 348.144 135.019 344.693 131.722 343.451L90.33 324.93C56.7789 311.459 43.3584 277.782 43.3584 254.909V183.682C43.3584 176.09 49.0644 170.017 55.9115 170.017L111.328 170.017C118.302 170.017 123.881 176.228 123.881 183.682V237.37C123.881 254.909 137.302 257.576 137.302 257.576L217.824 277.782H265.156Z" fill="url(#paint36_radial_1278_1772)"/>
<path d="M265.156 277.782H278.216C311.767 277.782 378.869 324.93 378.869 399.019H137.302V351.871C137.302 348.144 135.019 344.693 131.722 343.451L90.33 324.93C56.7789 311.459 43.3584 277.782 43.3584 254.909V183.682C43.3584 176.09 49.0644 170.017 55.9115 170.017L111.328 170.017C118.302 170.017 123.881 176.228 123.881 183.682V237.37C123.881 254.909 137.302 257.576 137.302 257.576L217.824 277.782H265.156Z" fill="url(#paint37_radial_1278_1772)"/>
<path d="M243.507 277.297L137.442 346.689C136.804 343.811 134.772 341.344 132.053 340.342L90.5059 322.153C56.8291 308.924 43.3584 275.85 43.3584 253.387V183.437C43.3584 175.981 49.0857 170.017 55.9585 170.017L111.583 170.017C118.583 170.017 124.183 176.117 124.183 183.437V236.163C124.183 253.387 137.653 256.007 137.653 256.007L218.478 275.85L243.507 277.297Z" fill="url(#paint38_linear_1278_1772)"/>
<path d="M243.507 277.297L137.442 346.689C136.804 343.811 134.772 341.344 132.053 340.342L90.5059 322.153C56.8291 308.924 43.3584 275.85 43.3584 253.387V183.437C43.3584 175.981 49.0857 170.017 55.9585 170.017L111.583 170.017C118.583 170.017 124.183 176.117 124.183 183.437V236.163C124.183 253.387 137.653 256.007 137.653 256.007L218.478 275.85L243.507 277.297Z" fill="url(#paint39_radial_1278_1772)"/>
<path d="M243.507 277.297L137.442 346.689C136.804 343.811 134.772 341.344 132.053 340.342L90.5059 322.153C56.8291 308.924 43.3584 275.85 43.3584 253.387V183.437C43.3584 175.981 49.0857 170.017 55.9585 170.017L111.583 170.017C118.583 170.017 124.183 176.117 124.183 183.437V236.163C124.183 253.387 137.653 256.007 137.653 256.007L218.478 275.85L243.507 277.297Z" fill="url(#paint40_radial_1278_1772)"/>
<path d="M243.507 277.297L137.442 346.689C136.804 343.811 134.772 341.344 132.053 340.342L90.5059 322.153C56.8291 308.924 43.3584 275.85 43.3584 253.387V183.437C43.3584 175.981 49.0857 170.017 55.9585 170.017L111.583 170.017C118.583 170.017 124.183 176.117 124.183 183.437V236.163C124.183 253.387 137.653 256.007 137.653 256.007L218.478 275.85L243.507 277.297Z" fill="url(#paint41_radial_1278_1772)"/>
<path d="M243.507 277.297L137.442 346.689C136.804 343.811 134.772 341.344 132.053 340.342L90.5059 322.153C56.8291 308.924 43.3584 275.85 43.3584 253.387V183.437C43.3584 175.981 49.0857 170.017 55.9585 170.017L111.583 170.017C118.583 170.017 124.183 176.117 124.183 183.437V236.163C124.183 253.387 137.653 256.007 137.653 256.007L218.478 275.85L243.507 277.297Z" fill="url(#paint42_linear_1278_1772)"/>
<path d="M243.507 277.297L137.442 346.689C136.804 343.811 134.772 341.344 132.053 340.342L90.5059 322.153C56.8291 308.924 43.3584 275.85 43.3584 253.387V183.437C43.3584 175.981 49.0857 170.017 55.9585 170.017L111.583 170.017C118.583 170.017 124.183 176.117 124.183 183.437V236.163C124.183 253.387 137.653 256.007 137.653 256.007L218.478 275.85L243.507 277.297Z" fill="url(#paint43_linear_1278_1772)"/>
<path d="M252.146 319.618C235.068 319.618 221.215 306.344 221.215 289.98V254.962C221.215 238.598 235.068 225.323 252.146 225.323C269.224 225.323 283.078 238.598 283.078 254.962V289.98C283.078 306.344 269.224 319.618 252.146 319.618Z" fill="url(#paint44_radial_1278_1772)"/>
<g filter="url(#filter11_f_1278_1772)">
<path d="M95.1136 182.514L95.1104 270.284C95.1104 271.15 95.6675 271.917 96.4908 272.186L170.041 296.152" stroke="url(#paint45_linear_1278_1772)" stroke-width="13.4707"/>
</g>
<g filter="url(#filter12_i_1278_1772)">
<path d="M174.653 215.446C189.347 215.446 201.259 203.533 201.259 188.839C201.259 174.144 189.347 162.232 174.653 162.232C159.958 162.232 148.046 174.144 148.046 188.839C148.046 203.533 159.958 215.446 174.653 215.446Z" fill="url(#paint46_linear_1278_1772)"/>
</g>
<g filter="url(#filter13_i_1278_1772)">
<path d="M331.96 215.446C346.655 215.446 358.567 203.533 358.567 188.839C358.567 174.144 346.655 162.232 331.96 162.232C317.266 162.232 305.354 174.144 305.354 188.839C305.354 203.533 317.266 215.446 331.96 215.446Z" fill="url(#paint47_radial_1278_1772)"/>
<path d="M331.96 215.446C346.655 215.446 358.567 203.533 358.567 188.839C358.567 174.144 346.655 162.232 331.96 162.232C317.266 162.232 305.354 174.144 305.354 188.839C305.354 203.533 317.266 215.446 331.96 215.446Z" fill="url(#paint48_radial_1278_1772)"/>
</g>
<g filter="url(#filter14_f_1278_1772)">
<path d="M331.955 206.6C341.764 206.6 349.716 198.649 349.716 188.84C349.716 179.031 341.764 171.079 331.955 171.079C322.146 171.079 314.194 179.031 314.194 188.84C314.194 198.649 322.146 206.6 331.955 206.6Z" fill="#845F59"/>
<path d="M331.955 206.6C341.764 206.6 349.716 198.649 349.716 188.84C349.716 179.031 341.764 171.079 331.955 171.079C322.146 171.079 314.194 179.031 314.194 188.84C314.194 198.649 322.146 206.6 331.955 206.6Z" fill="url(#paint49_radial_1278_1772)"/>
</g>
<g filter="url(#filter15_f_1278_1772)">
<path d="M174.989 206.6C184.798 206.6 192.75 198.649 192.75 188.84C192.75 179.031 184.798 171.079 174.989 171.079C165.18 171.079 157.229 179.031 157.229 188.84C157.229 198.649 165.18 206.6 174.989 206.6Z" fill="#5F3C45"/>
<path d="M174.989 206.6C184.798 206.6 192.75 198.649 192.75 188.84C192.75 179.031 184.798 171.079 174.989 171.079C165.18 171.079 157.229 179.031 157.229 188.84C157.229 198.649 165.18 206.6 174.989 206.6Z" fill="url(#paint50_radial_1278_1772)"/>
</g>
<g filter="url(#filter16_i_1278_1772)">
<path d="M168.019 167.959H168.223L168.053 163.572L167.884 158.511C168.223 142.821 177.38 136.748 181.28 134.723C181.534 134.639 181.831 134.512 182.127 134.386C182.424 134.259 182.721 134.133 182.975 134.048C191.793 129.999 198.915 122.913 202.645 113.634L204.002 110.429C205.358 107.223 209.597 106.717 211.632 109.585C223.502 126.962 243.341 137.254 264.367 137.254H317.611C320.589 137.254 335.505 138.698 336.393 159.282L334.43 210.096C332.391 256.436 296.203 287.553 252.03 287.553C207.857 287.553 171.669 256.436 169.631 210.096L168.019 167.959Z" fill="url(#paint51_radial_1278_1772)"/>
<path d="M168.019 167.959H168.223L168.053 163.572L167.884 158.511C168.223 142.821 177.38 136.748 181.28 134.723C181.534 134.639 181.831 134.512 182.127 134.386C182.424 134.259 182.721 134.133 182.975 134.048C191.793 129.999 198.915 122.913 202.645 113.634L204.002 110.429C205.358 107.223 209.597 106.717 211.632 109.585C223.502 126.962 243.341 137.254 264.367 137.254H317.611C320.589 137.254 335.505 138.698 336.393 159.282L334.43 210.096C332.391 256.436 296.203 287.553 252.03 287.553C207.857 287.553 171.669 256.436 169.631 210.096L168.019 167.959Z" fill="url(#paint52_radial_1278_1772)"/>
<path d="M168.019 167.959H168.223L168.053 163.572L167.884 158.511C168.223 142.821 177.38 136.748 181.28 134.723C181.534 134.639 181.831 134.512 182.127 134.386C182.424 134.259 182.721 134.133 182.975 134.048C191.793 129.999 198.915 122.913 202.645 113.634L204.002 110.429C205.358 107.223 209.597 106.717 211.632 109.585C223.502 126.962 243.341 137.254 264.367 137.254H317.611C320.589 137.254 335.505 138.698 336.393 159.282L334.43 210.096C332.391 256.436 296.203 287.553 252.03 287.553C207.857 287.553 171.669 256.436 169.631 210.096L168.019 167.959Z" fill="url(#paint53_radial_1278_1772)"/>
<path d="M168.019 167.959H168.223L168.053 163.572L167.884 158.511C168.223 142.821 177.38 136.748 181.28 134.723C181.534 134.639 181.831 134.512 182.127 134.386C182.424 134.259 182.721 134.133 182.975 134.048C191.793 129.999 198.915 122.913 202.645 113.634L204.002 110.429C205.358 107.223 209.597 106.717 211.632 109.585C223.502 126.962 243.341 137.254 264.367 137.254H317.611C320.589 137.254 335.505 138.698 336.393 159.282L334.43 210.096C332.391 256.436 296.203 287.553 252.03 287.553C207.857 287.553 171.669 256.436 169.631 210.096L168.019 167.959Z" fill="url(#paint54_radial_1278_1772)"/>
<path d="M168.019 167.959H168.223L168.053 163.572L167.884 158.511C168.223 142.821 177.38 136.748 181.28 134.723C181.534 134.639 181.831 134.512 182.127 134.386C182.424 134.259 182.721 134.133 182.975 134.048C191.793 129.999 198.915 122.913 202.645 113.634L204.002 110.429C205.358 107.223 209.597 106.717 211.632 109.585C223.502 126.962 243.341 137.254 264.367 137.254H317.611C320.589 137.254 335.505 138.698 336.393 159.282L334.43 210.096C332.391 256.436 296.203 287.553 252.03 287.553C207.857 287.553 171.669 256.436 169.631 210.096L168.019 167.959Z" fill="url(#paint55_radial_1278_1772)"/>
<path d="M168.019 167.959H168.223L168.053 163.572L167.884 158.511C168.223 142.821 177.38 136.748 181.28 134.723C181.534 134.639 181.831 134.512 182.127 134.386C182.424 134.259 182.721 134.133 182.975 134.048C191.793 129.999 198.915 122.913 202.645 113.634L204.002 110.429C205.358 107.223 209.597 106.717 211.632 109.585C223.502 126.962 243.341 137.254 264.367 137.254H317.611C320.589 137.254 335.505 138.698 336.393 159.282L334.43 210.096C332.391 256.436 296.203 287.553 252.03 287.553C207.857 287.553 171.669 256.436 169.631 210.096L168.019 167.959Z" fill="url(#paint56_radial_1278_1772)"/>
<path d="M168.019 167.959H168.223L168.053 163.572L167.884 158.511C168.223 142.821 177.38 136.748 181.28 134.723C181.534 134.639 181.831 134.512 182.127 134.386C182.424 134.259 182.721 134.133 182.975 134.048C191.793 129.999 198.915 122.913 202.645 113.634L204.002 110.429C205.358 107.223 209.597 106.717 211.632 109.585C223.502 126.962 243.341 137.254 264.367 137.254H317.611C320.589 137.254 335.505 138.698 336.393 159.282L334.43 210.096C332.391 256.436 296.203 287.553 252.03 287.553C207.857 287.553 171.669 256.436 169.631 210.096L168.019 167.959Z" fill="url(#paint57_radial_1278_1772)"/>
<path d="M168.019 167.959H168.223L168.053 163.572L167.884 158.511C168.223 142.821 177.38 136.748 181.28 134.723C181.534 134.639 181.831 134.512 182.127 134.386C182.424 134.259 182.721 134.133 182.975 134.048C191.793 129.999 198.915 122.913 202.645 113.634L204.002 110.429C205.358 107.223 209.597 106.717 211.632 109.585C223.502 126.962 243.341 137.254 264.367 137.254H317.611C320.589 137.254 335.505 138.698 336.393 159.282L334.43 210.096C332.391 256.436 296.203 287.553 252.03 287.553C207.857 287.553 171.669 256.436 169.631 210.096L168.019 167.959Z" fill="url(#paint58_radial_1278_1772)"/>
</g>
<path d="M168.019 167.959H168.223L168.053 163.572L167.884 158.511C168.223 142.821 177.38 136.748 181.28 134.723C181.534 134.639 181.831 134.512 182.127 134.386C182.424 134.259 182.721 134.133 182.975 134.048C191.793 129.999 198.915 122.913 202.645 113.634L204.002 110.429C205.358 107.223 209.597 106.717 211.632 109.585C223.502 126.962 243.341 137.254 264.367 137.254H317.611C320.589 137.254 335.505 138.698 336.393 159.282L334.43 210.096C332.391 256.436 296.203 287.553 252.03 287.553C207.857 287.553 171.669 256.436 169.631 210.096L168.019 167.959Z" fill="url(#paint59_radial_1278_1772)"/>
<g filter="url(#filter17_f_1278_1772)">
<path d="M245.662 185.155L234.359 213.265C232.565 219.047 236.87 224.829 242.967 224.829H255.97C262.068 224.829 266.372 218.958 264.579 213.265L255.791 185.155C253.908 178.928 247.635 178.928 245.662 185.155Z" fill="#70404A"/>
</g>
<g filter="url(#filter18_f_1278_1772)">
<path d="M245.83 182.866L237.042 210.976C235.249 216.758 239.553 222.54 245.651 222.54H258.654C264.752 222.54 269.056 216.669 267.263 210.976L258.475 182.866C256.591 176.639 247.803 176.639 245.83 182.866Z" fill="#8A6058"/>
<path d="M245.83 182.866L237.042 210.976C235.249 216.758 239.553 222.54 245.651 222.54H258.654C264.752 222.54 269.056 216.669 267.263 210.976L258.475 182.866C256.591 176.639 247.803 176.639 245.83 182.866Z" fill="url(#paint60_radial_1278_1772)"/>
<path d="M245.83 182.866L237.042 210.976C235.249 216.758 239.553 222.54 245.651 222.54H258.654C264.752 222.54 269.056 216.669 267.263 210.976L258.475 182.866C256.591 176.639 247.803 176.639 245.83 182.866Z" fill="url(#paint61_linear_1278_1772)"/>
<path d="M245.83 182.866L237.042 210.976C235.249 216.758 239.553 222.54 245.651 222.54H258.654C264.752 222.54 269.056 216.669 267.263 210.976L258.475 182.866C256.591 176.639 247.803 176.639 245.83 182.866Z" fill="url(#paint62_linear_1278_1772)"/>
<path d="M245.83 182.866L237.042 210.976C235.249 216.758 239.553 222.54 245.651 222.54H258.654C264.752 222.54 269.056 216.669 267.263 210.976L258.475 182.866C256.591 176.639 247.803 176.639 245.83 182.866Z" fill="url(#paint63_radial_1278_1772)"/>
</g>
<path d="M245.83 182.866L237.042 210.976C235.249 216.758 239.553 222.54 245.651 222.54H258.654C264.752 222.54 269.056 216.669 267.263 210.976L258.475 182.866C256.591 176.639 247.803 176.639 245.83 182.866Z" fill="url(#paint64_linear_1278_1772)"/>
<path d="M245.83 182.866L237.042 210.976C235.249 216.758 239.553 222.54 245.651 222.54H258.654C264.752 222.54 269.056 216.669 267.263 210.976L258.475 182.866C256.591 176.639 247.803 176.639 245.83 182.866Z" fill="url(#paint65_radial_1278_1772)"/>
<path d="M228.956 230.687L228.956 230.687L228.95 230.684C227.481 229.92 225.954 230.396 225.046 231.374C224.137 232.352 223.79 233.902 224.719 235.28C230.521 244.268 240.629 250.264 252.146 250.264C263.665 250.264 273.775 244.266 279.576 235.275C280.495 233.864 280.163 232.316 279.243 231.338C278.328 230.366 276.801 229.925 275.342 230.684L275.342 230.684L275.336 230.687C268.634 234.261 260.735 236.308 252.146 236.308C243.643 236.308 235.658 234.261 228.956 230.687Z" fill="#88014F" stroke="url(#paint66_linear_1278_1772)" stroke-width="1.34707"/>
<g filter="url(#filter19_i_1278_1772)">
<path d="M271.03 179.428C275.418 171.71 282.09 165.613 296.45 165.613C302.738 165.613 308.8 167.355 314.19 171.71C318.635 175.302 318.039 179.898 314.597 181.619L305.403 186.868C294.624 183.384 282.706 182.912 271.03 179.428Z" fill="#2D2B2E"/>
</g>
<g filter="url(#filter20_i_1278_1772)">
<path d="M233.255 179.428C228.866 171.71 222.194 165.613 207.834 165.613C201.547 165.613 195.484 167.355 190.095 171.71C185.649 175.302 186.245 179.898 189.687 181.619L198.881 186.868C209.66 183.384 221.578 182.912 233.255 179.428Z" fill="#272528"/>
</g>
<g filter="url(#filter21_i_1278_1772)">
<path d="M195.957 159.44L195.885 159.482C195.883 159.483 195.881 159.485 195.879 159.486C193.78 160.739 191.059 160.058 189.801 157.961C188.541 155.861 189.224 153.136 191.324 151.875L191.334 151.87L191.351 151.86L191.4 151.831L191.555 151.741C191.685 151.667 191.864 151.566 192.092 151.443C192.547 151.197 193.193 150.86 194.01 150.471C195.639 149.694 197.961 148.7 200.791 147.797C206.412 146.003 214.271 144.494 222.755 145.991C225.166 146.417 226.777 148.717 226.351 151.129C225.925 153.541 223.625 155.151 221.213 154.725C214.62 153.562 208.289 154.713 203.488 156.246C201.108 157.005 199.162 157.84 197.826 158.477C197.159 158.795 196.649 159.061 196.317 159.241C196.151 159.33 196.031 159.398 195.957 159.44Z" fill="#352827"/>
</g>
<g filter="url(#filter22_i_1278_1772)">
<path fill-rule="evenodd" clip-rule="evenodd" d="M313.849 151.875C313.85 151.876 313.851 151.877 311.57 155.68L313.849 151.875C315.949 153.136 316.632 155.861 315.372 157.961C314.114 160.058 311.396 160.74 309.297 159.487C309.295 159.486 309.293 159.485 309.289 159.483L309.216 159.44C309.143 159.398 309.022 159.33 308.856 159.241C308.524 159.061 308.014 158.795 307.347 158.477C306.011 157.84 304.065 157.005 301.685 156.246C296.884 154.713 290.553 153.562 283.96 154.725C281.548 155.151 279.248 153.541 278.822 151.129C278.397 148.717 280.007 146.417 282.418 145.991C290.902 144.494 298.761 146.003 304.382 147.797C307.212 148.7 309.534 149.694 311.163 150.471C311.98 150.86 312.627 151.197 313.081 151.443C313.309 151.566 313.488 151.667 313.618 151.741L313.773 151.831L313.822 151.86L313.839 151.87L313.849 151.875Z" fill="#352827"/>
</g>
<path d="M291.685 166.583C302.484 166.583 311.607 174.029 314.089 184.09C314.826 186.975 312.613 189.725 309.661 189.725H272.769C270.421 189.725 268.543 187.578 269.013 185.231C271.092 174.632 280.416 166.583 291.685 166.583Z" fill="white"/>
<path d="M288.263 171.079C296.447 171.079 303.02 177.719 303.02 185.836C303.02 187.177 302.819 188.519 302.484 189.726H273.976C273.641 188.452 273.439 187.177 273.439 185.836C273.439 177.719 280.08 171.079 288.263 171.079Z" fill="url(#paint67_radial_1278_1772)"/>
<path d="M279.807 185.835C279.807 181.14 283.563 177.384 288.258 177.384C292.954 177.384 296.71 181.14 296.71 185.835C296.71 187.244 296.375 188.585 295.771 189.726H280.813C280.142 188.585 279.807 187.244 279.807 185.835Z" fill="black"/>
<g filter="url(#filter23_f_1278_1772)">
<path d="M287.181 174.197C288.232 175.603 286.035 177.317 283.536 179.185C281.037 181.054 279.184 182.368 278.132 180.962C277.081 179.556 278.254 176.902 280.753 175.033C283.252 173.165 286.129 172.791 287.181 174.197Z" fill="#C7A7A3"/>
<path d="M287.181 174.197C288.232 175.603 286.035 177.317 283.536 179.185C281.037 181.054 279.184 182.368 278.132 180.962C277.081 179.556 278.254 176.902 280.753 175.033C283.252 173.165 286.129 172.791 287.181 174.197Z" fill="url(#paint68_radial_1278_1772)"/>
</g>
<g filter="url(#filter24_f_1278_1772)">
<path d="M301.4 183.893C300.855 180.078 298.623 177.203 297.574 176.242L293.277 180.959L295.216 184.732L301.4 183.893Z" fill="url(#paint69_linear_1278_1772)"/>
</g>
<path d="M212.61 166.583C201.811 166.583 192.688 174.029 190.206 184.09C189.469 186.975 191.682 189.725 194.634 189.725H231.526C233.874 189.725 235.752 187.578 235.282 185.231C233.203 174.633 223.812 166.583 212.61 166.583Z" fill="white"/>
<path d="M216.029 171.079C207.845 171.079 201.271 177.72 201.271 185.836C201.271 187.177 201.473 188.519 201.808 189.726H230.316C230.651 188.452 230.853 187.177 230.853 185.836C230.786 177.72 224.212 171.079 216.029 171.079Z" fill="url(#paint70_radial_1278_1772)"/>
<path d="M224.489 185.835C224.489 181.14 220.733 177.384 216.038 177.384C211.342 177.384 207.586 181.14 207.586 185.835C207.586 187.244 207.921 188.585 208.525 189.726H223.483C224.087 188.585 224.489 187.244 224.489 185.835Z" fill="black"/>
<g filter="url(#filter25_f_1278_1772)">
<path d="M229.515 184.102C229.515 179.333 225.637 176.154 224.589 175.193L219.82 179.805L222.755 185.779L229.515 184.102Z" fill="url(#paint71_linear_1278_1772)"/>
</g>
<g filter="url(#filter26_f_1278_1772)">
<ellipse cx="211.569" cy="177.383" rx="6.44222" ry="3.26036" transform="rotate(-27.914 211.569 177.383)" fill="#C7A7A3" fill-opacity="0.9"/>
<ellipse cx="211.569" cy="177.383" rx="6.44222" ry="3.26036" transform="rotate(-27.914 211.569 177.383)" fill="url(#paint72_radial_1278_1772)"/>
</g>
<g filter="url(#filter27_f_1278_1772)">
<path d="M284.227 149.606C289.56 148.308 302.822 148.957 311.688 155.3" stroke="#473C3C" stroke-width="5.38829" stroke-linecap="round"/>
</g>
<g filter="url(#filter28_f_1278_1772)">
<path d="M221.53 149.606C216.197 148.308 202.934 148.957 194.069 155.3" stroke="#473C3C" stroke-width="5.38829" stroke-linecap="round"/>
</g>
<g filter="url(#filter29_if_1278_1772)">
<path d="M168.315 89.8201C177.669 79.9115 195.371 79.8958 203.549 81.3739L210.092 102.715C205.912 102.068 202.186 103.546 199.051 106.595C191.636 127.437 166.156 138.93 154.343 142.071C151.889 117.404 156.142 102.715 168.315 89.8201Z" fill="#2A191E"/>
<path d="M168.315 89.8201C177.669 79.9115 195.371 79.8958 203.549 81.3739L210.092 102.715C205.912 102.068 202.186 103.546 199.051 106.595C191.636 127.437 166.156 138.93 154.343 142.071C151.889 117.404 156.142 102.715 168.315 89.8201Z" fill="url(#paint73_radial_1278_1772)"/>
</g>
<g filter="url(#filter30_if_1278_1772)">
<path d="M242.178 60.0168C223.449 55.8817 206.631 74.5674 204.691 81.4962C222.083 140.114 266.087 136.903 309.526 132.077C335.53 129.188 338.35 141.038 340.568 146.766C340.568 81.7373 285.27 69.5298 242.651 60.1213L242.178 60.0168Z" fill="#2F1920"/>
<path d="M242.178 60.0168C223.449 55.8817 206.631 74.5674 204.691 81.4962C222.083 140.114 266.087 136.903 309.526 132.077C335.53 129.188 338.35 141.038 340.568 146.766C340.568 81.7373 285.27 69.5298 242.651 60.1213L242.178 60.0168Z" fill="url(#paint74_radial_1278_1772)"/>
<path d="M242.178 60.0168C223.449 55.8817 206.631 74.5674 204.691 81.4962C222.083 140.114 266.087 136.903 309.526 132.077C335.53 129.188 338.35 141.038 340.568 146.766C340.568 81.7373 285.27 69.5298 242.651 60.1213L242.178 60.0168Z" fill="url(#paint75_radial_1278_1772)"/>
</g>
<g filter="url(#filter31_f_1278_1772)">
<path d="M204.323 80.6646C204.708 84.6833 208.203 99.7882 213.331 108.934" stroke="url(#paint76_linear_1278_1772)" stroke-width="2.69414" stroke-linecap="round"/>
</g>
<g filter="url(#filter32_f_1278_1772)">
<path d="M291.925 119.707L268.355 124.043C261.364 125.329 254.918 119.96 254.918 112.851C254.918 106.567 260.005 101.473 266.289 101.473H304.994C327.886 101.473 335.463 124.543 336.39 132.427C324.371 121.471 307.92 116.765 291.925 119.707Z" fill="#4B4648"/>
</g>
<defs>
<filter id="filter0_f_1278_1772" x="55.898" y="63.704" width="5.70391" height="29.9092" filterUnits="userSpaceOnUse" color-interpolation-filters="sRGB">
<feFlood flood-opacity="0" result="BackgroundImageFix"/>
<feBlend mode="normal" in="SourceGraphic" in2="BackgroundImageFix" result="shape"/>
<feGaussianBlur stdDeviation="0.673536" result="effect1_foregroundBlur_1278_1772"/>
</filter>
<filter id="filter1_f_1278_1772" x="76.8414" y="57.9156" width="4.65117" height="34.6451" filterUnits="userSpaceOnUse" color-interpolation-filters="sRGB">
<feFlood flood-opacity="0" result="BackgroundImageFix"/>
<feBlend mode="normal" in="SourceGraphic" in2="BackgroundImageFix" result="shape"/>
<feGaussianBlur stdDeviation="0.673536" result="effect1_foregroundBlur_1278_1772"/>
</filter>
<filter id="filter2_f_1278_1772" x="96.732" y="66.0191" width="6.86114" height="22.6478" filterUnits="userSpaceOnUse" color-interpolation-filters="sRGB">
<feFlood flood-opacity="0" result="BackgroundImageFix"/>
<feBlend mode="normal" in="SourceGraphic" in2="BackgroundImageFix" result="shape"/>
<feGaussianBlur stdDeviation="0.673536" result="effect1_foregroundBlur_1278_1772"/>
</filter>
<filter id="filter3_f_1278_1772" x="40.6166" y="54.9462" width="20.9563" height="46.9712" filterUnits="userSpaceOnUse" color-interpolation-filters="sRGB">
<feFlood flood-opacity="0" result="BackgroundImageFix"/>
<feBlend mode="normal" in="SourceGraphic" in2="BackgroundImageFix" result="shape"/>
<feGaussianBlur stdDeviation="2.69414" result="effect1_foregroundBlur_1278_1772"/>
</filter>
<filter id="filter4_f_1278_1772" x="63.3227" y="42.435" width="16.1652" height="52.3823" filterUnits="userSpaceOnUse" color-interpolation-filters="sRGB">
<feFlood flood-opacity="0" result="BackgroundImageFix"/>
<feBlend mode="normal" in="SourceGraphic" in2="BackgroundImageFix" result="shape"/>
<feGaussianBlur stdDeviation="2.69414" result="effect1_foregroundBlur_1278_1772"/>
</filter>
<filter id="filter5_f_1278_1772" x="84.1684" y="29.9611" width="20.0442" height="64.2988" filterUnits="userSpaceOnUse" color-interpolation-filters="sRGB">
<feFlood flood-opacity="0" result="BackgroundImageFix"/>
<feBlend mode="normal" in="SourceGraphic" in2="BackgroundImageFix" result="shape"/>
<feGaussianBlur stdDeviation="2.69414" result="effect1_foregroundBlur_1278_1772"/>
</filter>
<filter id="filter6_f_1278_1772" x="103.072" y="43.6352" width="26.9631" height="57.9113" filterUnits="userSpaceOnUse" color-interpolation-filters="sRGB">
<feFlood flood-opacity="0" result="BackgroundImageFix"/>
<feBlend mode="normal" in="SourceGraphic" in2="BackgroundImageFix" result="shape"/>
<feGaussianBlur stdDeviation="2.69414" result="effect1_foregroundBlur_1278_1772"/>
</filter>
<filter id="filter7_f_1278_1772" x="44.5266" y="88.8605" width="19.0279" height="18.2914" filterUnits="userSpaceOnUse" color-interpolation-filters="sRGB">
<feFlood flood-opacity="0" result="BackgroundImageFix"/>
<feBlend mode="normal" in="SourceGraphic" in2="BackgroundImageFix" result="shape"/>
<feGaussianBlur stdDeviation="1.34707" result="effect1_foregroundBlur_1278_1772"/>
</filter>
<filter id="filter8_f_1278_1772" x="66.7434" y="86.059" width="15.0641" height="13.4618" filterUnits="userSpaceOnUse" color-interpolation-filters="sRGB">
<feFlood flood-opacity="0" result="BackgroundImageFix"/>
<feBlend mode="normal" in="SourceGraphic" in2="BackgroundImageFix" result="shape"/>
<feGaussianBlur stdDeviation="1.34707" result="effect1_foregroundBlur_1278_1772"/>
</filter>
<filter id="filter9_f_1278_1772" x="83.7922" y="83.4802" width="17.6754" height="13.7774" filterUnits="userSpaceOnUse" color-interpolation-filters="sRGB">
<feFlood flood-opacity="0" result="BackgroundImageFix"/>
<feBlend mode="normal" in="SourceGraphic" in2="BackgroundImageFix" result="shape"/>
<feGaussianBlur stdDeviation="1.34707" result="effect1_foregroundBlur_1278_1772"/>
</filter>
<filter id="filter10_i_1278_1772" x="127.972" y="37.7202" width="251.698" height="258.433" filterUnits="userSpaceOnUse" color-interpolation-filters="sRGB">
<feFlood flood-opacity="0" result="BackgroundImageFix"/>
<feBlend mode="normal" in="SourceGraphic" in2="BackgroundImageFix" result="shape"/>
<feColorMatrix in="SourceAlpha" type="matrix" values="0 0 0 0 0 0 0 0 0 0 0 0 0 0 0 0 0 0 127 0" result="hardAlpha"/>
<feOffset dx="3.36768" dy="-10.103"/>
<feGaussianBlur stdDeviation="10.103"/>
<feComposite in2="hardAlpha" operator="arithmetic" k2="-1" k3="1"/>
<feColorMatrix type="matrix" values="0 0 0 0 0.121569 0 0 0 0 0.0705882 0 0 0 0 0.164706 0 0 0 1 0"/>
<feBlend mode="normal" in2="shape" result="effect1_innerShadow_1278_1772"/>
</filter>
<filter id="filter11_f_1278_1772" x="68.1699" y="162.308" width="124.164" height="160.454" filterUnits="userSpaceOnUse" color-interpolation-filters="sRGB">
<feFlood flood-opacity="0" result="BackgroundImageFix"/>
<feBlend mode="normal" in="SourceGraphic" in2="BackgroundImageFix" result="shape"/>
<feGaussianBlur stdDeviation="10.103" result="effect1_foregroundBlur_1278_1772"/>
</filter>
<filter id="filter12_i_1278_1772" x="148.046" y="162.232" width="55.2345" height="53.2136" filterUnits="userSpaceOnUse" color-interpolation-filters="sRGB">
<feFlood flood-opacity="0" result="BackgroundImageFix"/>
<feBlend mode="normal" in="SourceGraphic" in2="BackgroundImageFix" result="shape"/>
<feColorMatrix in="SourceAlpha" type="matrix" values="0 0 0 0 0 0 0 0 0 0 0 0 0 0 0 0 0 0 127 0" result="hardAlpha"/>
<feOffset dx="2.02061"/>
<feGaussianBlur stdDeviation="3.36768"/>
<feComposite in2="hardAlpha" operator="arithmetic" k2="-1" k3="1"/>
<feColorMatrix type="matrix" values="0 0 0 0 0.509804 0 0 0 0 0.376471 0 0 0 0 0.34902 0 0 0 1 0"/>
<feBlend mode="normal" in2="shape" result="effect1_innerShadow_1278_1772"/>
</filter>
<filter id="filter13_i_1278_1772" x="305.354" y="158.864" width="53.2139" height="56.5813" filterUnits="userSpaceOnUse" color-interpolation-filters="sRGB">
<feFlood flood-opacity="0" result="BackgroundImageFix"/>
<feBlend mode="normal" in="SourceGraphic" in2="BackgroundImageFix" result="shape"/>
<feColorMatrix in="SourceAlpha" type="matrix" values="0 0 0 0 0 0 0 0 0 0 0 0 0 0 0 0 0 0 127 0" result="hardAlpha"/>
<feOffset dy="-3.36768"/>
<feGaussianBlur stdDeviation="3.36768"/>
<feComposite in2="hardAlpha" operator="arithmetic" k2="-1" k3="1"/>
<feColorMatrix type="matrix" values="0 0 0 0 0.431373 0 0 0 0 0.243137 0 0 0 0 0.282353 0 0 0 1 0"/>
<feBlend mode="normal" in2="shape" result="effect1_innerShadow_1278_1772"/>
</filter>
<filter id="filter14_f_1278_1772" x="307.459" y="164.343" width="48.9922" height="48.9922" filterUnits="userSpaceOnUse" color-interpolation-filters="sRGB">
<feFlood flood-opacity="0" result="BackgroundImageFix"/>
<feBlend mode="normal" in="SourceGraphic" in2="BackgroundImageFix" result="shape"/>
<feGaussianBlur stdDeviation="3.36768" result="effect1_foregroundBlur_1278_1772"/>
</filter>
<filter id="filter15_f_1278_1772" x="153.861" y="167.711" width="42.2568" height="42.2568" filterUnits="userSpaceOnUse" color-interpolation-filters="sRGB">
<feFlood flood-opacity="0" result="BackgroundImageFix"/>
<feBlend mode="normal" in="SourceGraphic" in2="BackgroundImageFix" result="shape"/>
<feGaussianBlur stdDeviation="1.68384" result="effect1_foregroundBlur_1278_1772"/>
</filter>
<filter id="filter16_i_1278_1772" x="167.884" y="107.701" width="168.51" height="185.24" filterUnits="userSpaceOnUse" color-interpolation-filters="sRGB">
<feFlood flood-opacity="0" result="BackgroundImageFix"/>
<feBlend mode="normal" in="SourceGraphic" in2="BackgroundImageFix" result="shape"/>
<feColorMatrix in="SourceAlpha" type="matrix" values="0 0 0 0 0 0 0 0 0 0 0 0 0 0 0 0 0 0 127 0" result="hardAlpha"/>
<feOffset dy="5.38829"/>
<feGaussianBlur stdDeviation="4.04121"/>
<feComposite in2="hardAlpha" operator="arithmetic" k2="-1" k3="1"/>
<feColorMatrix type="matrix" values="0 0 0 0 0.407843 0 0 0 0 0.223529 0 0 0 0 0.25098 0 0 0 1 0"/>
<feBlend mode="normal" in2="shape" result="effect1_innerShadow_1278_1772"/>
</filter>
<filter id="filter17_f_1278_1772" x="227.213" y="173.75" width="44.5117" height="57.8154" filterUnits="userSpaceOnUse" color-interpolation-filters="sRGB">
<feFlood flood-opacity="0" result="BackgroundImageFix"/>
<feBlend mode="normal" in="SourceGraphic" in2="BackgroundImageFix" result="shape"/>
<feGaussianBlur stdDeviation="3.36768" result="effect1_foregroundBlur_1278_1772"/>
</filter>
<filter id="filter18_f_1278_1772" x="233.264" y="174.828" width="37.7764" height="51.0801" filterUnits="userSpaceOnUse" color-interpolation-filters="sRGB">
<feFlood flood-opacity="0" result="BackgroundImageFix"/>
<feBlend mode="normal" in="SourceGraphic" in2="BackgroundImageFix" result="shape"/>
<feGaussianBlur stdDeviation="1.68384" result="effect1_foregroundBlur_1278_1772"/>
</filter>
<filter id="filter19_i_1278_1772" x="268.335" y="165.613" width="49.0164" height="21.2551" filterUnits="userSpaceOnUse" color-interpolation-filters="sRGB">
<feFlood flood-opacity="0" result="BackgroundImageFix"/>
<feBlend mode="normal" in="SourceGraphic" in2="BackgroundImageFix" result="shape"/>
<feColorMatrix in="SourceAlpha" type="matrix" values="0 0 0 0 0 0 0 0 0 0 0 0 0 0 0 0 0 0 127 0" result="hardAlpha"/>
<feOffset dx="-2.69414"/>
<feGaussianBlur stdDeviation="2.69414"/>
<feComposite in2="hardAlpha" operator="arithmetic" k2="-1" k3="1"/>
<feColorMatrix type="matrix" values="0 0 0 0 0.0941176 0 0 0 0 0.0666667 0 0 0 0 0.117647 0 0 0 1 0"/>
<feBlend mode="normal" in2="shape" result="effect1_innerShadow_1278_1772"/>
</filter>
<filter id="filter20_i_1278_1772" x="186.933" y="165.613" width="49.0164" height="21.2551" filterUnits="userSpaceOnUse" color-interpolation-filters="sRGB">
<feFlood flood-opacity="0" result="BackgroundImageFix"/>
<feBlend mode="normal" in="SourceGraphic" in2="BackgroundImageFix" result="shape"/>
<feColorMatrix in="SourceAlpha" type="matrix" values="0 0 0 0 0 0 0 0 0 0 0 0 0 0 0 0 0 0 127 0" result="hardAlpha"/>
<feOffset dx="2.69414"/>
<feGaussianBlur stdDeviation="1.68384"/>
<feComposite in2="hardAlpha" operator="arithmetic" k2="-1" k3="1"/>
<feColorMatrix type="matrix" values="0 0 0 0 0.0862745 0 0 0 0 0.054902 0 0 0 0 0.113725 0 0 0 1 0"/>
<feBlend mode="normal" in2="shape" result="effect1_innerShadow_1278_1772"/>
</filter>
<filter id="filter21_i_1278_1772" x="189.169" y="142.686" width="39.9441" height="17.4273" filterUnits="userSpaceOnUse" color-interpolation-filters="sRGB">
<feFlood flood-opacity="0" result="BackgroundImageFix"/>
<feBlend mode="normal" in="SourceGraphic" in2="BackgroundImageFix" result="shape"/>
<feColorMatrix in="SourceAlpha" type="matrix" values="0 0 0 0 0 0 0 0 0 0 0 0 0 0 0 0 0 0 127 0" result="hardAlpha"/>
<feOffset dx="2.69414" dy="-2.69414"/>
<feGaussianBlur stdDeviation="2.02061"/>
<feComposite in2="hardAlpha" operator="arithmetic" k2="-1" k3="1"/>
<feColorMatrix type="matrix" values="0 0 0 0 0.164706 0 0 0 0 0.0901961 0 0 0 0 0.109804 0 0 0 1 0"/>
<feBlend mode="normal" in2="shape" result="effect1_innerShadow_1278_1772"/>
</filter>
<filter id="filter22_i_1278_1772" x="278.754" y="142.686" width="39.9441" height="17.4283" filterUnits="userSpaceOnUse" color-interpolation-filters="sRGB">
<feFlood flood-opacity="0" result="BackgroundImageFix"/>
<feBlend mode="normal" in="SourceGraphic" in2="BackgroundImageFix" result="shape"/>
<feColorMatrix in="SourceAlpha" type="matrix" values="0 0 0 0 0 0 0 0 0 0 0 0 0 0 0 0 0 0 127 0" result="hardAlpha"/>
<feOffset dx="2.69414" dy="-2.69414"/>
<feGaussianBlur stdDeviation="2.02061"/>
<feComposite in2="hardAlpha" operator="arithmetic" k2="-1" k3="1"/>
<feColorMatrix type="matrix" values="0 0 0 0 0.164706 0 0 0 0 0.0901961 0 0 0 0 0.109804 0 0 0 1 0"/>
<feBlend mode="normal" in2="shape" result="effect1_innerShadow_1278_1772"/>
</filter>
<filter id="filter23_f_1278_1772" x="276.4" y="171.998" width="12.3973" height="10.9007" filterUnits="userSpaceOnUse" color-interpolation-filters="sRGB">
<feFlood flood-opacity="0" result="BackgroundImageFix"/>
<feBlend mode="normal" in="SourceGraphic" in2="BackgroundImageFix" result="shape"/>
<feGaussianBlur stdDeviation="0.673536" result="effect1_foregroundBlur_1278_1772"/>
</filter>
<filter id="filter24_f_1278_1772" x="290.583" y="173.548" width="13.5113" height="13.8778" filterUnits="userSpaceOnUse" color-interpolation-filters="sRGB">
<feFlood flood-opacity="0" result="BackgroundImageFix"/>
<feBlend mode="normal" in="SourceGraphic" in2="BackgroundImageFix" result="shape"/>
<feGaussianBlur stdDeviation="1.34707" result="effect1_foregroundBlur_1278_1772"/>
</filter>
<filter id="filter25_f_1278_1772" x="217.126" y="172.499" width="15.0826" height="15.974" filterUnits="userSpaceOnUse" color-interpolation-filters="sRGB">
<feFlood flood-opacity="0" result="BackgroundImageFix"/>
<feBlend mode="normal" in="SourceGraphic" in2="BackgroundImageFix" result="shape"/>
<feGaussianBlur stdDeviation="1.34707" result="effect1_foregroundBlur_1278_1772"/>
</filter>
<filter id="filter26_f_1278_1772" x="204.327" y="171.866" width="14.4842" height="11.0357" filterUnits="userSpaceOnUse" color-interpolation-filters="sRGB">
<feFlood flood-opacity="0" result="BackgroundImageFix"/>
<feBlend mode="normal" in="SourceGraphic" in2="BackgroundImageFix" result="shape"/>
<feGaussianBlur stdDeviation="0.673536" result="effect1_foregroundBlur_1278_1772"/>
</filter>
<filter id="filter27_f_1278_1772" x="276.144" y="140.972" width="43.6262" height="22.4108" filterUnits="userSpaceOnUse" color-interpolation-filters="sRGB">
<feFlood flood-opacity="0" result="BackgroundImageFix"/>
<feBlend mode="normal" in="SourceGraphic" in2="BackgroundImageFix" result="shape"/>
<feGaussianBlur stdDeviation="2.69414" result="effect1_foregroundBlur_1278_1772"/>
</filter>
<filter id="filter28_f_1278_1772" x="185.987" y="140.972" width="43.6262" height="22.4108" filterUnits="userSpaceOnUse" color-interpolation-filters="sRGB">
<feFlood flood-opacity="0" result="BackgroundImageFix"/>
<feBlend mode="normal" in="SourceGraphic" in2="BackgroundImageFix" result="shape"/>
<feGaussianBlur stdDeviation="2.69414" result="effect1_foregroundBlur_1278_1772"/>
</filter>
<filter id="filter29_if_1278_1772" x="148.288" y="75.2797" width="68.5387" height="73.5265" filterUnits="userSpaceOnUse" color-interpolation-filters="sRGB">
<feFlood flood-opacity="0" result="BackgroundImageFix"/>
<feBlend mode="normal" in="SourceGraphic" in2="BackgroundImageFix" result="shape"/>
<feColorMatrix in="SourceAlpha" type="matrix" values="0 0 0 0 0 0 0 0 0 0 0 0 0 0 0 0 0 0 127 0" result="hardAlpha"/>
<feOffset dx="6.73536" dy="6.73536"/>
<feGaussianBlur stdDeviation="6.73536"/>
<feComposite in2="hardAlpha" operator="arithmetic" k2="-1" k3="1"/>
<feColorMatrix type="matrix" values="0 0 0 0 0.294118 0 0 0 0 0.262745 0 0 0 0 0.262745 0 0 0 1 0"/>
<feBlend mode="normal" in2="shape" result="effect1_innerShadow_1278_1772"/>
<feGaussianBlur stdDeviation="2.69414" result="effect2_foregroundBlur_1278_1772"/>
</filter>
<filter id="filter30_if_1278_1772" x="200.65" y="56.0583" width="143.285" height="94.0752" filterUnits="userSpaceOnUse" color-interpolation-filters="sRGB">
<feFlood flood-opacity="0" result="BackgroundImageFix"/>
<feBlend mode="normal" in="SourceGraphic" in2="BackgroundImageFix" result="shape"/>
<feColorMatrix in="SourceAlpha" type="matrix" values="0 0 0 0 0 0 0 0 0 0 0 0 0 0 0 0 0 0 127 0" result="hardAlpha"/>
<feOffset dx="-4.04121" dy="2.69414"/>
<feGaussianBlur stdDeviation="5.38829"/>
<feComposite in2="hardAlpha" operator="arithmetic" k2="-1" k3="1"/>
<feColorMatrix type="matrix" values="0 0 0 0 0.345098 0 0 0 0 0.329412 0 0 0 0 0.333333 0 0 0 1 0"/>
<feBlend mode="normal" in2="shape" result="effect1_innerShadow_1278_1772"/>
<feGaussianBlur stdDeviation="1.68384" result="effect2_foregroundBlur_1278_1772"/>
</filter>
<filter id="filter31_f_1278_1772" x="200.282" y="76.6232" width="17.0895" height="36.3524" filterUnits="userSpaceOnUse" color-interpolation-filters="sRGB">
<feFlood flood-opacity="0" result="BackgroundImageFix"/>
<feBlend mode="normal" in="SourceGraphic" in2="BackgroundImageFix" result="shape"/>
<feGaussianBlur stdDeviation="1.34707" result="effect1_foregroundBlur_1278_1772"/>
</filter>
<filter id="filter32_f_1278_1772" x="241.447" y="88.0019" width="108.414" height="57.8958" filterUnits="userSpaceOnUse" color-interpolation-filters="sRGB">
<feFlood flood-opacity="0" result="BackgroundImageFix"/>
<feBlend mode="normal" in="SourceGraphic" in2="BackgroundImageFix" result="shape"/>
<feGaussianBlur stdDeviation="6.73536" result="effect1_foregroundBlur_1278_1772"/>
</filter>
<radialGradient id="paint0_radial_1278_1772" cx="0" cy="0" r="1" gradientUnits="userSpaceOnUse" gradientTransform="translate(75.026 155.122) rotate(-68.8849) scale(87.2525 104.382)">
<stop offset="0.474886" stop-color="#815854"/>
<stop offset="1" stop-color="#7A544A"/>
</radialGradient>
<radialGradient id="paint1_radial_1278_1772" cx="0" cy="0" r="1" gradientUnits="userSpaceOnUse" gradientTransform="translate(132.467 129.716) rotate(130.764) scale(128.943 31.0388)">
<stop offset="0.146595" stop-color="#67383D"/>
<stop offset="1" stop-color="#6A413B" stop-opacity="0"/>
</radialGradient>
<linearGradient id="paint2_linear_1278_1772" x1="81.5312" y1="164.024" x2="81.5312" y2="141.082" gradientUnits="userSpaceOnUse">
<stop stop-color="#724130"/>
<stop offset="1" stop-color="#724130" stop-opacity="0"/>
</linearGradient>
<radialGradient id="paint3_radial_1278_1772" cx="0" cy="0" r="1" gradientUnits="userSpaceOnUse" gradientTransform="translate(57.8522 63.346) rotate(85.0559) scale(30.5279 3.66062)">
<stop offset="0.400744" stop-color="#714131"/>
<stop offset="1" stop-color="#714131" stop-opacity="0"/>
</radialGradient>
<radialGradient id="paint4_radial_1278_1772" cx="0" cy="0" r="1" gradientUnits="userSpaceOnUse" gradientTransform="translate(80.0578 47.6652) rotate(90.7884) scale(45.889 3.58361)">
<stop offset="0.400744" stop-color="#714131"/>
<stop offset="1" stop-color="#714131" stop-opacity="0"/>
</radialGradient>
<radialGradient id="paint5_radial_1278_1772" cx="0" cy="0" r="1" gradientUnits="userSpaceOnUse" gradientTransform="translate(106.578 37.3517) rotate(99.6086) scale(54.2226 7.74877)">
<stop offset="0.651533" stop-color="#714131"/>
<stop offset="1" stop-color="#714131" stop-opacity="0"/>
</radialGradient>
<radialGradient id="paint6_radial_1278_1772" cx="0" cy="0" r="1" gradientUnits="userSpaceOnUse" gradientTransform="translate(126.766 42.208) rotate(131.934) scale(13.3623 11.7384)">
<stop stop-color="#997A6F"/>
<stop offset="1" stop-color="#997A6F" stop-opacity="0"/>
</radialGradient>
<radialGradient id="paint7_radial_1278_1772" cx="0" cy="0" r="1" gradientUnits="userSpaceOnUse" gradientTransform="translate(100.82 28.3669) rotate(121.412) scale(16.8101 10.3857)">
<stop stop-color="#997A6F"/>
<stop offset="1" stop-color="#997A6F" stop-opacity="0"/>
</radialGradient>
<radialGradient id="paint8_radial_1278_1772" cx="0" cy="0" r="1" gradientUnits="userSpaceOnUse" gradientTransform="translate(73.0201 36.3111) rotate(99.8411) scale(16.7579 12.8592)">
<stop stop-color="#997A6F"/>
<stop offset="1" stop-color="#997A6F" stop-opacity="0"/>
</radialGradient>
<radialGradient id="paint9_radial_1278_1772" cx="0" cy="0" r="1" gradientUnits="userSpaceOnUse" gradientTransform="translate(49.4325 52.8224) rotate(98.1301) scale(13.1049 9.31637)">
<stop stop-color="#997A6F"/>
<stop offset="1" stop-color="#997A6F" stop-opacity="0"/>
</radialGradient>
<radialGradient id="paint10_radial_1278_1772" cx="0" cy="0" r="1" gradientUnits="userSpaceOnUse" gradientTransform="translate(154.249 91.2364) rotate(138.919) scale(15.8964 12.4395)">
<stop stop-color="#866A60"/>
<stop offset="1" stop-color="#866A60" stop-opacity="0"/>
</radialGradient>
<linearGradient id="paint11_linear_1278_1772" x1="61.1937" y1="65.6007" x2="61.3189" y2="92.5661" gradientUnits="userSpaceOnUse">
<stop stop-color="#331C1A"/>
<stop offset="1" stop-color="#331C1A" stop-opacity="0"/>
</linearGradient>
<linearGradient id="paint12_linear_1278_1772" x1="80.3246" y1="59.8204" x2="80.6929" y2="91.6555" gradientUnits="userSpaceOnUse">
<stop stop-color="#331C1A"/>
<stop offset="1" stop-color="#331C1A" stop-opacity="0"/>
</linearGradient>
<linearGradient id="paint13_linear_1278_1772" x1="104.021" y1="67.9036" x2="104.063" y2="87.3969" gradientUnits="userSpaceOnUse">
<stop stop-color="#331C1A"/>
<stop offset="1" stop-color="#331C1A" stop-opacity="0"/>
</linearGradient>
<linearGradient id="paint14_linear_1278_1772" x1="44.5695" y1="67.1184" x2="50.2229" y2="102.239" gradientUnits="userSpaceOnUse">
<stop stop-color="#95766F"/>
<stop offset="1" stop-color="#95766F" stop-opacity="0"/>
</linearGradient>
<linearGradient id="paint15_linear_1278_1772" x1="70.5574" y1="55.3542" x2="91.607" y2="78.3801" gradientUnits="userSpaceOnUse">
<stop stop-color="#95766F"/>
<stop offset="1" stop-color="#95766F" stop-opacity="0"/>
</linearGradient>
<linearGradient id="paint16_linear_1278_1772" x1="88.9418" y1="45.1631" x2="103.789" y2="94.6871" gradientUnits="userSpaceOnUse">
<stop stop-color="#95766F"/>
<stop offset="1" stop-color="#95766F" stop-opacity="0"/>
</linearGradient>
<linearGradient id="paint17_linear_1278_1772" x1="101.802" y1="57.954" x2="106.059" y2="104.178" gradientUnits="userSpaceOnUse">
<stop stop-color="#95766F"/>
<stop offset="1" stop-color="#95766F" stop-opacity="0"/>
</linearGradient>
<linearGradient id="paint18_linear_1278_1772" x1="62.0103" y1="92.2691" x2="47.299" y2="91.3495" gradientUnits="userSpaceOnUse">
<stop stop-color="#8E6E66"/>
<stop offset="1" stop-color="#8E6E66" stop-opacity="0"/>
</linearGradient>
<linearGradient id="paint19_linear_1278_1772" x1="79.1468" y1="89.9532" x2="71.5487" y2="88.0508" gradientUnits="userSpaceOnUse">
<stop stop-color="#8E6E66"/>
<stop offset="1" stop-color="#8E6E66" stop-opacity="0"/>
</linearGradient>
<linearGradient id="paint20_linear_1278_1772" x1="99.3762" y1="87.4348" x2="88.5567" y2="84.5647" gradientUnits="userSpaceOnUse">
<stop stop-color="#8E6E66"/>
<stop offset="1" stop-color="#8E6E66" stop-opacity="0"/>
</linearGradient>
<linearGradient id="paint21_linear_1278_1772" x1="329.741" y1="73.876" x2="217.217" y2="282.296" gradientUnits="userSpaceOnUse">
<stop stop-color="#45363A"/>
<stop offset="1" stop-color="#1C151F"/>
</linearGradient>
<radialGradient id="paint22_radial_1278_1772" cx="0" cy="0" r="1" gradientUnits="userSpaceOnUse" gradientTransform="translate(247.149 230.191) rotate(97.5394) scale(76.0433 94.9935)">
<stop offset="0.590551" stop-color="#171418"/>
<stop offset="1" stop-color="#171418" stop-opacity="0"/>
</radialGradient>
<radialGradient id="paint23_radial_1278_1772" cx="0" cy="0" r="1" gradientUnits="userSpaceOnUse" gradientTransform="translate(200.587 234.625) rotate(146.004) scale(57.4997 75.5501)">
<stop offset="0.258378" stop-color="#181518"/>
<stop offset="1" stop-color="#181518" stop-opacity="0"/>
</radialGradient>
<radialGradient id="paint24_radial_1278_1772" cx="0" cy="0" r="1" gradientUnits="userSpaceOnUse" gradientTransform="translate(172.041 192.498) rotate(127.405) scale(35.5881 27.3267)">
<stop offset="0.333546" stop-color="#040101"/>
<stop offset="1" stop-color="#040101" stop-opacity="0"/>
</radialGradient>
<radialGradient id="paint25_radial_1278_1772" cx="0" cy="0" r="1" gradientUnits="userSpaceOnUse" gradientTransform="translate(179.522 158.962) rotate(121.43) scale(40.926 28.8287)">
<stop offset="0.320588" stop-color="#040002"/>
<stop offset="1" stop-color="#040002" stop-opacity="0"/>
</radialGradient>
<radialGradient id="paint26_radial_1278_1772" cx="0" cy="0" r="1" gradientUnits="userSpaceOnUse" gradientTransform="translate(193.934 55.5838) rotate(62.2717) scale(48.8452 67.8046)">
<stop stop-color="#474445"/>
<stop offset="1" stop-color="#474445" stop-opacity="0"/>
</radialGradient>
<radialGradient id="paint27_radial_1278_1772" cx="0" cy="0" r="1" gradientUnits="userSpaceOnUse" gradientTransform="translate(348.586 89.9509) rotate(134.998) scale(33.7072 47.1052)">
<stop stop-color="#4A4446"/>
<stop offset="1" stop-color="#4A4446" stop-opacity="0"/>
</radialGradient>
<radialGradient id="paint28_radial_1278_1772" cx="0" cy="0" r="1" gradientUnits="userSpaceOnUse" gradientTransform="translate(376.302 174.76) rotate(163.779) scale(31.7495 66.2111)">
<stop stop-color="#3B3638"/>
<stop offset="1" stop-color="#3B3638" stop-opacity="0"/>
</radialGradient>
<radialGradient id="paint29_radial_1278_1772" cx="0" cy="0" r="1" gradientUnits="userSpaceOnUse" gradientTransform="translate(366.324 231.299) rotate(165.963) scale(47.9936 61.1367)">
<stop stop-color="#464444"/>
<stop offset="1" stop-color="#464444" stop-opacity="0"/>
</radialGradient>
<radialGradient id="paint30_radial_1278_1772" cx="0" cy="0" r="1" gradientUnits="userSpaceOnUse" gradientTransform="translate(330.392 134.513) rotate(-108.843) scale(46.3046 36.6243)">
<stop stop-color="#575455"/>
<stop offset="1" stop-color="#575455" stop-opacity="0"/>
</radialGradient>
<radialGradient id="paint31_radial_1278_1772" cx="0" cy="0" r="1" gradientUnits="userSpaceOnUse" gradientTransform="translate(150.579 174.162) rotate(5.98813) scale(25.0042 40.5141)">
<stop stop-color="#413733"/>
<stop offset="1" stop-color="#413733" stop-opacity="0"/>
</radialGradient>
<linearGradient id="paint32_linear_1278_1772" x1="52.5937" y1="164.123" x2="111.528" y2="164.123" gradientUnits="userSpaceOnUse">
<stop stop-color="#745C92"/>
<stop offset="0.742857" stop-color="#463168"/>
</linearGradient>
<radialGradient id="paint33_radial_1278_1772" cx="0" cy="0" r="1" gradientUnits="userSpaceOnUse" gradientTransform="translate(92.071 162.642) rotate(90) scale(14.9441 15.5755)">
<stop stop-color="#655188"/>
<stop offset="1" stop-color="#655188" stop-opacity="0"/>
</radialGradient>
<linearGradient id="paint34_linear_1278_1772" x1="83.1659" y1="156.23" x2="83.1659" y2="159.703" gradientUnits="userSpaceOnUse">
<stop stop-color="#4F396F"/>
<stop offset="1" stop-color="#4F396F" stop-opacity="0"/>
</linearGradient>
<linearGradient id="paint35_linear_1278_1772" x1="251.745" y1="387.943" x2="69.5856" y2="170.017" gradientUnits="userSpaceOnUse">
<stop stop-color="#8663C9"/>
<stop offset="0.750847" stop-color="#7A5FB3"/>
</linearGradient>
<radialGradient id="paint36_radial_1278_1772" cx="0" cy="0" r="1" gradientUnits="userSpaceOnUse" gradientTransform="translate(339.207 367.15) rotate(163.638) scale(113.127 98.1092)">
<stop stop-color="#9E7FDF"/>
<stop offset="1" stop-color="#9E7FDF" stop-opacity="0"/>
</radialGradient>
<radialGradient id="paint37_radial_1278_1772" cx="0" cy="0" r="1" gradientUnits="userSpaceOnUse" gradientTransform="translate(142.735 399.019) rotate(-90) scale(62.3023 35.7814)">
<stop stop-color="#8969BA"/>
<stop offset="1" stop-color="#8969BA" stop-opacity="0"/>
</radialGradient>
<linearGradient id="paint38_linear_1278_1772" x1="123.544" y1="350.833" x2="149.043" y2="267.431" gradientUnits="userSpaceOnUse">
<stop offset="0.100065" stop-color="#6B45AD"/>
<stop offset="1" stop-color="#6B45AD" stop-opacity="0"/>
</linearGradient>
<radialGradient id="paint39_radial_1278_1772" cx="0" cy="0" r="1" gradientUnits="userSpaceOnUse" gradientTransform="translate(36.1838 170.017) rotate(90) scale(116.582 73.247)">
<stop stop-color="#8B6EBC"/>
<stop offset="1" stop-color="#8B6EBC" stop-opacity="0"/>
</radialGradient>
<radialGradient id="paint40_radial_1278_1772" cx="0" cy="0" r="1" gradientUnits="userSpaceOnUse" gradientTransform="translate(234.514 267.982) rotate(-168.087) scale(139.177 58.8771)">
<stop offset="0.286567" stop-color="#362659"/>
<stop offset="1" stop-color="#5E4490" stop-opacity="0"/>
</radialGradient>
<radialGradient id="paint41_radial_1278_1772" cx="0" cy="0" r="1" gradientUnits="userSpaceOnUse" gradientTransform="translate(154.319 208.543) rotate(-180) scale(76.6639 75.7848)">
<stop offset="0.131579" stop-color="#362659"/>
<stop offset="1" stop-color="#5E4490" stop-opacity="0"/>
</radialGradient>
<linearGradient id="paint42_linear_1278_1772" x1="181.983" y1="328.081" x2="171.416" y2="306.085" gradientUnits="userSpaceOnUse">
<stop stop-color="#8967CB"/>
<stop offset="0.732311" stop-color="#8967CB" stop-opacity="0"/>
</linearGradient>
<linearGradient id="paint43_linear_1278_1772" x1="90.2647" y1="170.017" x2="90.2647" y2="183.776" gradientUnits="userSpaceOnUse">
<stop stop-color="#6A51A2"/>
<stop offset="1" stop-color="#6A51A2" stop-opacity="0"/>
</linearGradient>
<radialGradient id="paint44_radial_1278_1772" cx="0" cy="0" r="1" gradientUnits="userSpaceOnUse" gradientTransform="translate(240.791 261.042) rotate(63.4349) scale(59.3016 66.8319)">
<stop offset="0.492064" stop-color="#72434C"/>
<stop offset="1" stop-color="#8E655D"/>
</radialGradient>
<linearGradient id="paint45_linear_1278_1772" x1="90.4831" y1="193.016" x2="167.94" y2="304.571" gradientUnits="userSpaceOnUse">
<stop stop-color="#9478CE"/>
<stop offset="1" stop-color="#9478CE" stop-opacity="0"/>
</linearGradient>
<linearGradient id="paint46_linear_1278_1772" x1="148.891" y1="190.28" x2="169.401" y2="190.28" gradientUnits="userSpaceOnUse">
<stop stop-color="#6A4745"/>
<stop offset="1" stop-color="#533335"/>
</linearGradient>
<radialGradient id="paint47_radial_1278_1772" cx="0" cy="0" r="1" gradientUnits="userSpaceOnUse" gradientTransform="translate(318.935 196.101) rotate(-24.444) scale(45.2097 55.1989)">
<stop offset="0.63975" stop-color="#875E5E"/>
<stop offset="0.94391" stop-color="#9D7E72"/>
</radialGradient>
<radialGradient id="paint48_radial_1278_1772" cx="0" cy="0" r="1" gradientUnits="userSpaceOnUse" gradientTransform="translate(335.979 161.041) rotate(29.2711) scale(24.9412 7.05125)">
<stop stop-color="#755041"/>
<stop offset="1" stop-color="#755041" stop-opacity="0"/>
</radialGradient>
<radialGradient id="paint49_radial_1278_1772" cx="0" cy="0" r="1" gradientUnits="userSpaceOnUse" gradientTransform="translate(324.749 190.697) rotate(-4.25413) scale(25.0356 19.5708)">
<stop offset="0.719132" stop-color="#7D4D48" stop-opacity="0"/>
<stop offset="1" stop-color="#7D4D48"/>
</radialGradient>
<radialGradient id="paint50_radial_1278_1772" cx="0" cy="0" r="1" gradientUnits="userSpaceOnUse" gradientTransform="translate(176.07 188.84) rotate(-180) scale(17.4607)">
<stop offset="0.722222" stop-color="#5A3638" stop-opacity="0"/>
<stop offset="1" stop-color="#5A3638"/>
</radialGradient>
<radialGradient id="paint51_radial_1278_1772" cx="0" cy="0" r="1" gradientUnits="userSpaceOnUse" gradientTransform="translate(299.417 179.95) rotate(155.244) scale(118.422 158.506)">
<stop stop-color="#996B5E"/>
<stop offset="1" stop-color="#764E4C"/>
</radialGradient>
<radialGradient id="paint52_radial_1278_1772" cx="0" cy="0" r="1" gradientUnits="userSpaceOnUse" gradientTransform="translate(284.727 194.07) rotate(156.249) scale(39.3877 27.4289)">
<stop stop-color="#986B5A"/>
<stop offset="1" stop-color="#986B5A" stop-opacity="0"/>
</radialGradient>
<radialGradient id="paint53_radial_1278_1772" cx="0" cy="0" r="1" gradientUnits="userSpaceOnUse" gradientTransform="translate(216.388 287.553) rotate(-71.832) scale(68.3651 86.7426)">
<stop stop-color="#743F5A"/>
<stop offset="1" stop-color="#743F5A" stop-opacity="0"/>
</radialGradient>
<radialGradient id="paint54_radial_1278_1772" cx="0" cy="0" r="1" gradientUnits="userSpaceOnUse" gradientTransform="translate(269.053 173.067) rotate(99.8838) scale(123.755 154.692)">
<stop offset="0.636944" stop-color="#793E68" stop-opacity="0"/>
<stop offset="1" stop-color="#793E68"/>
</radialGradient>
<radialGradient id="paint55_radial_1278_1772" cx="0" cy="0" r="1" gradientUnits="userSpaceOnUse" gradientTransform="translate(282.071 208.571) rotate(168.897) scale(116.366 200.346)">
<stop offset="0.794964" stop-color="#805C54" stop-opacity="0"/>
<stop offset="1" stop-color="#805C54"/>
</radialGradient>
<radialGradient id="paint56_radial_1278_1772" cx="0" cy="0" r="1" gradientUnits="userSpaceOnUse" gradientTransform="translate(290.191 173.03) rotate(-90) scale(19.0284 23.353)">
<stop stop-color="#875555"/>
<stop offset="1" stop-color="#875555" stop-opacity="0"/>
</radialGradient>
<radialGradient id="paint57_radial_1278_1772" cx="0" cy="0" r="1" gradientUnits="userSpaceOnUse" gradientTransform="translate(217.803 169.251) rotate(-90) scale(21.7029 24.8729)">
<stop stop-color="#714350"/>
<stop offset="1" stop-color="#714350" stop-opacity="0"/>
</radialGradient>
<radialGradient id="paint58_radial_1278_1772" cx="0" cy="0" r="1" gradientUnits="userSpaceOnUse" gradientTransform="translate(275.011 134.735) rotate(105.092) scale(55.2613 44.2182)">
<stop stop-color="#815A5B"/>
<stop offset="1" stop-color="#815A5B" stop-opacity="0"/>
</radialGradient>
<radialGradient id="paint59_radial_1278_1772" cx="0" cy="0" r="1" gradientUnits="userSpaceOnUse" gradientTransform="translate(336.393 197.627) rotate(180) scale(21.2526 106.58)">
<stop stop-color="#986F60"/>
<stop offset="1" stop-color="#986F60" stop-opacity="0"/>
</radialGradient>
<radialGradient id="paint60_radial_1278_1772" cx="0" cy="0" r="1" gradientUnits="userSpaceOnUse" gradientTransform="translate(265.122 209.646) rotate(-102.564) scale(34.6276 10.6719)">
<stop offset="0.0168227" stop-color="#A07A6F"/>
<stop offset="1" stop-color="#A07A6F" stop-opacity="0"/>
</radialGradient>
<linearGradient id="paint61_linear_1278_1772" x1="236.632" y1="210.851" x2="252.152" y2="210.851" gradientUnits="userSpaceOnUse">
<stop stop-color="#744C45"/>
<stop offset="1" stop-color="#744C45" stop-opacity="0"/>
</linearGradient>
<linearGradient id="paint62_linear_1278_1772" x1="252.152" y1="224.062" x2="252.152" y2="213.971" gradientUnits="userSpaceOnUse">
<stop stop-color="#7C455C"/>
<stop offset="1" stop-color="#7C455C" stop-opacity="0"/>
</linearGradient>
<radialGradient id="paint63_radial_1278_1772" cx="0" cy="0" r="1" gradientUnits="userSpaceOnUse" gradientTransform="translate(261.16 213.145) rotate(-180) scale(12.8877 3.60301)">
<stop stop-color="#A07A6F"/>
<stop offset="1" stop-color="#A07A6F" stop-opacity="0"/>
</radialGradient>
<linearGradient id="paint64_linear_1278_1772" x1="253.446" y1="223.629" x2="253.446" y2="221.323" gradientUnits="userSpaceOnUse">
<stop stop-color="#693B40"/>
<stop offset="1" stop-color="#693B40" stop-opacity="0"/>
</linearGradient>
<radialGradient id="paint65_radial_1278_1772" cx="0" cy="0" r="1" gradientUnits="userSpaceOnUse" gradientTransform="translate(258.388 203.306) rotate(145.529) scale(27.5025 33.0538)">
<stop offset="0.777645" stop-color="#693B40" stop-opacity="0"/>
<stop offset="1" stop-color="#693B40"/>
</radialGradient>
<linearGradient id="paint66_linear_1278_1772" x1="234.547" y1="247.373" x2="242.168" y2="235.594" gradientUnits="userSpaceOnUse">
<stop stop-color="#865E63"/>
<stop offset="0.663171" stop-color="#865E63" stop-opacity="0"/>
</linearGradient>
<radialGradient id="paint67_radial_1278_1772" cx="0" cy="0" r="1" gradientUnits="userSpaceOnUse" gradientTransform="translate(288.23 178.967) rotate(90) scale(13.4154 21.3387)">
<stop offset="0.80198" stop-color="#7D574A"/>
<stop offset="1" stop-color="#694B43"/>
<stop offset="1" stop-color="#804D49"/>
<stop offset="1" stop-color="#664944"/>
</radialGradient>
<radialGradient id="paint68_radial_1278_1772" cx="0" cy="0" r="1" gradientUnits="userSpaceOnUse" gradientTransform="translate(284.459 180.356) rotate(-127.812) scale(6.25508 8.61175)">
<stop offset="0.765532" stop-color="#FFE6E2" stop-opacity="0"/>
<stop offset="0.966159" stop-color="#FFE6E2"/>
</radialGradient>
<linearGradient id="paint69_linear_1278_1772" x1="301.086" y1="179.858" x2="295.898" y2="183.055" gradientUnits="userSpaceOnUse">
<stop stop-color="#B4948D"/>
<stop offset="1" stop-color="#B4948D" stop-opacity="0"/>
</linearGradient>
<radialGradient id="paint70_radial_1278_1772" cx="0" cy="0" r="1" gradientUnits="userSpaceOnUse" gradientTransform="translate(216.062 178.967) rotate(90) scale(13.4155 21.3388)">
<stop offset="0.80198" stop-color="#7D574A"/>
<stop offset="1" stop-color="#694B43"/>
<stop offset="1" stop-color="#804D49"/>
<stop offset="1" stop-color="#664944"/>
</radialGradient>
<linearGradient id="paint71_linear_1278_1772" x1="228.366" y1="179.857" x2="223.178" y2="183.054" gradientUnits="userSpaceOnUse">
<stop stop-color="#B4948D"/>
<stop offset="1" stop-color="#B4948D" stop-opacity="0"/>
</linearGradient>
<radialGradient id="paint72_radial_1278_1772" cx="0" cy="0" r="1" gradientUnits="userSpaceOnUse" gradientTransform="translate(211.319 182.591) rotate(-90.897) scale(8.17044 9.8212)">
<stop offset="0.765532" stop-color="#FFE6E2" stop-opacity="0"/>
<stop offset="0.966159" stop-color="#FFE6E2"/>
</radialGradient>
<radialGradient id="paint73_radial_1278_1772" cx="0" cy="0" r="1" gradientUnits="userSpaceOnUse" gradientTransform="translate(158.576 143.903) rotate(-65.3915) scale(50.1135 25.6368)">
<stop stop-color="#433838"/>
<stop offset="1" stop-color="#433838" stop-opacity="0"/>
</radialGradient>
<radialGradient id="paint74_radial_1278_1772" cx="0" cy="0" r="1" gradientUnits="userSpaceOnUse" gradientTransform="translate(283.751 57.7996) rotate(115.684) scale(80.5751 131.736)">
<stop offset="0.639192" stop-color="#1F0D24" stop-opacity="0"/>
<stop offset="1" stop-color="#1F0D24"/>
</radialGradient>
<radialGradient id="paint75_radial_1278_1772" cx="0" cy="0" r="1" gradientUnits="userSpaceOnUse" gradientTransform="translate(255.632 63.9078) rotate(98.7461) scale(22.873 49.2101)">
<stop stop-color="#4C4749"/>
<stop offset="1" stop-color="#4C4749" stop-opacity="0"/>
</radialGradient>
<linearGradient id="paint76_linear_1278_1772" x1="204.323" y1="86.3462" x2="213.331" y2="107.41" gradientUnits="userSpaceOnUse">
<stop stop-color="#1A1316"/>
<stop offset="1" stop-color="#24182D"/>
</linearGradient>
</defs>
</svg>
